%TF.GenerationSoftware,KiCad,Pcbnew,6.0.4-6f826c9f35~116~ubuntu20.04.1*%
%TF.CreationDate,2022-10-29T14:33:56+02:00*%
%TF.ProjectId,SofleTestBoard,536f666c-6554-4657-9374-426f6172642e,rev?*%
%TF.SameCoordinates,Original*%
%TF.FileFunction,Paste,Bot*%
%TF.FilePolarity,Positive*%
%FSLAX46Y46*%
G04 Gerber Fmt 4.6, Leading zero omitted, Abs format (unit mm)*
G04 Created by KiCad (PCBNEW 6.0.4-6f826c9f35~116~ubuntu20.04.1) date 2022-10-29 14:33:56*
%MOMM*%
%LPD*%
G01*
G04 APERTURE LIST*
%ADD10R,1.600000X1.000000*%
%ADD11R,2.300000X2.000000*%
%ADD12R,0.900000X1.200000*%
G04 APERTURE END LIST*
D10*
%TO.C,SW4*%
X125300000Y-82469999D03*
X125300000Y-85669999D03*
X132700000Y-85669999D03*
X132700000Y-82469999D03*
D11*
X122000000Y-75589999D03*
X134700000Y-73049999D03*
%TD*%
D10*
%TO.C,SW5*%
X145300000Y-82469999D03*
X145300000Y-85669999D03*
X152700000Y-85669999D03*
X152700000Y-82469999D03*
D11*
X142000000Y-75589999D03*
X154700000Y-73049999D03*
%TD*%
D10*
%TO.C,SW1*%
X125300000Y-62300000D03*
X125300000Y-65500000D03*
X132700000Y-65500000D03*
X132700000Y-62300000D03*
D11*
X122000000Y-55420000D03*
X134700000Y-52880000D03*
%TD*%
D10*
%TO.C,SW9*%
X165300000Y-102100000D03*
X165300000Y-105300000D03*
X172700000Y-105300000D03*
X172700000Y-102100000D03*
D11*
X162000000Y-95220000D03*
X174700000Y-92680000D03*
%TD*%
D10*
%TO.C,SW3*%
X165300000Y-62300000D03*
X165300000Y-65500000D03*
X172700000Y-65500000D03*
X172700000Y-62300000D03*
D11*
X162000000Y-55420000D03*
X174700000Y-52880000D03*
%TD*%
D10*
%TO.C,SW6*%
X165300000Y-82469999D03*
X165300000Y-85669999D03*
X172700000Y-85669999D03*
X172700000Y-82469999D03*
D11*
X162000000Y-75589999D03*
X174700000Y-73049999D03*
%TD*%
D10*
%TO.C,SW7*%
X125300000Y-102034999D03*
X125300000Y-105234999D03*
X132700000Y-105234999D03*
X132700000Y-102034999D03*
D11*
X122000000Y-95154999D03*
X134700000Y-92614999D03*
%TD*%
D10*
%TO.C,SW2*%
X145300000Y-62300000D03*
X145300000Y-65500000D03*
X152700000Y-65500000D03*
X152700000Y-62300000D03*
D11*
X142000000Y-55420000D03*
X154700000Y-52880000D03*
%TD*%
D10*
%TO.C,SW8*%
X145300000Y-102034999D03*
X145300000Y-105234999D03*
X152700000Y-105234999D03*
X152700000Y-102034999D03*
D11*
X142000000Y-95154999D03*
X154700000Y-92614999D03*
%TD*%
D12*
%TO.C,D4*%
X127350000Y-69500000D03*
X130650000Y-69500000D03*
%TD*%
%TO.C,D7*%
X127350000Y-89000000D03*
X130650000Y-89000000D03*
%TD*%
%TO.C,D1*%
X127350000Y-49500000D03*
X130650000Y-49500000D03*
%TD*%
%TO.C,D5*%
X147350000Y-69500000D03*
X150650000Y-69500000D03*
%TD*%
%TO.C,D2*%
X147350000Y-49500000D03*
X150650000Y-49500000D03*
%TD*%
%TO.C,D9*%
X167000000Y-89000000D03*
X170300000Y-89000000D03*
%TD*%
%TO.C,D3*%
X167550000Y-49500000D03*
X170850000Y-49500000D03*
%TD*%
%TO.C,D6*%
X167850000Y-69500000D03*
X171150000Y-69500000D03*
%TD*%
%TO.C,D8*%
X147350000Y-89000000D03*
X150650000Y-89000000D03*
%TD*%
M02*
