%TF.GenerationSoftware,KiCad,Pcbnew,6.0.4-6f826c9f35~116~ubuntu20.04.1*%
%TF.CreationDate,2022-10-29T14:33:56+02:00*%
%TF.ProjectId,SofleTestBoard,536f666c-6554-4657-9374-426f6172642e,rev?*%
%TF.SameCoordinates,Original*%
%TF.FileFunction,Soldermask,Top*%
%TF.FilePolarity,Negative*%
%FSLAX46Y46*%
G04 Gerber Fmt 4.6, Leading zero omitted, Abs format (unit mm)*
G04 Created by KiCad (PCBNEW 6.0.4-6f826c9f35~116~ubuntu20.04.1) date 2022-10-29 14:33:56*
%MOMM*%
%LPD*%
G01*
G04 APERTURE LIST*
%ADD10C,0.250000*%
%ADD11C,3.000000*%
%ADD12C,1.900000*%
%ADD13C,1.700000*%
%ADD14C,4.100000*%
%ADD15R,1.600000X1.000000*%
%ADD16R,2.300000X2.000000*%
%ADD17C,2.900000*%
%ADD18C,5.000000*%
%ADD19R,0.900000X1.200000*%
%ADD20O,1.800000X1.800000*%
%ADD21O,1.500000X1.500000*%
%ADD22R,3.500000X1.700000*%
%ADD23R,1.700000X3.500000*%
G04 APERTURE END LIST*
D10*
X113761904Y-50800476D02*
X113476190Y-50705238D01*
X112999999Y-50705238D01*
X112809523Y-50800476D01*
X112714285Y-50895714D01*
X112619047Y-51086190D01*
X112619047Y-51276666D01*
X112714285Y-51467142D01*
X112809523Y-51562380D01*
X112999999Y-51657619D01*
X113380952Y-51752857D01*
X113571428Y-51848095D01*
X113666666Y-51943333D01*
X113761904Y-52133809D01*
X113761904Y-52324285D01*
X113666666Y-52514761D01*
X113571428Y-52610000D01*
X113380952Y-52705238D01*
X112904761Y-52705238D01*
X112619047Y-52610000D01*
X111476190Y-50705238D02*
X111666666Y-50800476D01*
X111761904Y-50895714D01*
X111857142Y-51086190D01*
X111857142Y-51657619D01*
X111761904Y-51848095D01*
X111666666Y-51943333D01*
X111476190Y-52038571D01*
X111190476Y-52038571D01*
X110999999Y-51943333D01*
X110904761Y-51848095D01*
X110809523Y-51657619D01*
X110809523Y-51086190D01*
X110904761Y-50895714D01*
X110999999Y-50800476D01*
X111190476Y-50705238D01*
X111476190Y-50705238D01*
X110238095Y-52038571D02*
X109476190Y-52038571D01*
X109952380Y-50705238D02*
X109952380Y-52419523D01*
X109857142Y-52610000D01*
X109666666Y-52705238D01*
X109476190Y-52705238D01*
X108523809Y-50705238D02*
X108714285Y-50800476D01*
X108809523Y-50990952D01*
X108809523Y-52705238D01*
X107000000Y-50800476D02*
X107190476Y-50705238D01*
X107571428Y-50705238D01*
X107761904Y-50800476D01*
X107857142Y-50990952D01*
X107857142Y-51752857D01*
X107761904Y-51943333D01*
X107571428Y-52038571D01*
X107190476Y-52038571D01*
X107000000Y-51943333D01*
X106904761Y-51752857D01*
X106904761Y-51562380D01*
X107857142Y-51371904D01*
X106333333Y-52705238D02*
X105190476Y-52705238D01*
X105761904Y-50705238D02*
X105761904Y-52705238D01*
X103761904Y-50800476D02*
X103952380Y-50705238D01*
X104333333Y-50705238D01*
X104523809Y-50800476D01*
X104619047Y-50990952D01*
X104619047Y-51752857D01*
X104523809Y-51943333D01*
X104333333Y-52038571D01*
X103952380Y-52038571D01*
X103761904Y-51943333D01*
X103666666Y-51752857D01*
X103666666Y-51562380D01*
X104619047Y-51371904D01*
X102904761Y-50800476D02*
X102714285Y-50705238D01*
X102333333Y-50705238D01*
X102142857Y-50800476D01*
X102047619Y-50990952D01*
X102047619Y-51086190D01*
X102142857Y-51276666D01*
X102333333Y-51371904D01*
X102619047Y-51371904D01*
X102809523Y-51467142D01*
X102904761Y-51657619D01*
X102904761Y-51752857D01*
X102809523Y-51943333D01*
X102619047Y-52038571D01*
X102333333Y-52038571D01*
X102142857Y-51943333D01*
X101476190Y-52038571D02*
X100714285Y-52038571D01*
X101190476Y-52705238D02*
X101190476Y-50990952D01*
X101095238Y-50800476D01*
X100904761Y-50705238D01*
X100714285Y-50705238D01*
X99380952Y-51752857D02*
X99095238Y-51657619D01*
X98999999Y-51562380D01*
X98904761Y-51371904D01*
X98904761Y-51086190D01*
X98999999Y-50895714D01*
X99095238Y-50800476D01*
X99285714Y-50705238D01*
X100047619Y-50705238D01*
X100047619Y-52705238D01*
X99380952Y-52705238D01*
X99190476Y-52610000D01*
X99095238Y-52514761D01*
X98999999Y-52324285D01*
X98999999Y-52133809D01*
X99095238Y-51943333D01*
X99190476Y-51848095D01*
X99380952Y-51752857D01*
X100047619Y-51752857D01*
X97761904Y-50705238D02*
X97952380Y-50800476D01*
X98047619Y-50895714D01*
X98142857Y-51086190D01*
X98142857Y-51657619D01*
X98047619Y-51848095D01*
X97952380Y-51943333D01*
X97761904Y-52038571D01*
X97476190Y-52038571D01*
X97285714Y-51943333D01*
X97190476Y-51848095D01*
X97095238Y-51657619D01*
X97095238Y-51086190D01*
X97190476Y-50895714D01*
X97285714Y-50800476D01*
X97476190Y-50705238D01*
X97761904Y-50705238D01*
X95380952Y-50705238D02*
X95380952Y-51752857D01*
X95476190Y-51943333D01*
X95666666Y-52038571D01*
X96047619Y-52038571D01*
X96238095Y-51943333D01*
X95380952Y-50800476D02*
X95571428Y-50705238D01*
X96047619Y-50705238D01*
X96238095Y-50800476D01*
X96333333Y-50990952D01*
X96333333Y-51181428D01*
X96238095Y-51371904D01*
X96047619Y-51467142D01*
X95571428Y-51467142D01*
X95380952Y-51562380D01*
X94428571Y-50705238D02*
X94428571Y-52038571D01*
X94428571Y-51657619D02*
X94333333Y-51848095D01*
X94238095Y-51943333D01*
X94047619Y-52038571D01*
X93857142Y-52038571D01*
X92333333Y-50705238D02*
X92333333Y-52705238D01*
X92333333Y-50800476D02*
X92523809Y-50705238D01*
X92904761Y-50705238D01*
X93095238Y-50800476D01*
X93190476Y-50895714D01*
X93285714Y-51086190D01*
X93285714Y-51657619D01*
X93190476Y-51848095D01*
X93095238Y-51943333D01*
X92904761Y-52038571D01*
X92523809Y-52038571D01*
X92333333Y-51943333D01*
X110142857Y-47485238D02*
X110142857Y-49485238D01*
X110142857Y-48723333D02*
X109952380Y-48818571D01*
X109571428Y-48818571D01*
X109380952Y-48723333D01*
X109285714Y-48628095D01*
X109190476Y-48437619D01*
X109190476Y-47866190D01*
X109285714Y-47675714D01*
X109380952Y-47580476D01*
X109571428Y-47485238D01*
X109952380Y-47485238D01*
X110142857Y-47580476D01*
X108523809Y-48818571D02*
X108047619Y-47485238D01*
X107571428Y-48818571D02*
X108047619Y-47485238D01*
X108238095Y-47009047D01*
X108333333Y-46913809D01*
X108523809Y-46818571D01*
X104619047Y-48532857D02*
X105285714Y-48532857D01*
X105285714Y-47485238D02*
X105285714Y-49485238D01*
X104333333Y-49485238D01*
X103571428Y-47485238D02*
X103571428Y-48818571D01*
X103571428Y-48437619D02*
X103476190Y-48628095D01*
X103380952Y-48723333D01*
X103190476Y-48818571D01*
X103000000Y-48818571D01*
X101571428Y-47580476D02*
X101761904Y-47485238D01*
X102142857Y-47485238D01*
X102333333Y-47580476D01*
X102428571Y-47770952D01*
X102428571Y-48532857D01*
X102333333Y-48723333D01*
X102142857Y-48818571D01*
X101761904Y-48818571D01*
X101571428Y-48723333D01*
X101476190Y-48532857D01*
X101476190Y-48342380D01*
X102428571Y-48151904D01*
X99857142Y-47580476D02*
X100047619Y-47485238D01*
X100428571Y-47485238D01*
X100619047Y-47580476D01*
X100714285Y-47770952D01*
X100714285Y-48532857D01*
X100619047Y-48723333D01*
X100428571Y-48818571D01*
X100047619Y-48818571D01*
X99857142Y-48723333D01*
X99761904Y-48532857D01*
X99761904Y-48342380D01*
X100714285Y-48151904D01*
X99095238Y-48818571D02*
X98619047Y-47485238D01*
X98142857Y-48818571D01*
X97380952Y-47485238D02*
X97380952Y-48818571D01*
X97380952Y-49485238D02*
X97476190Y-49390000D01*
X97380952Y-49294761D01*
X97285714Y-49390000D01*
X97380952Y-49485238D01*
X97380952Y-49294761D01*
X96619047Y-48818571D02*
X96142857Y-47485238D01*
X95666666Y-48818571D01*
D11*
%TO.C,SW4*%
X125190000Y-75629999D03*
D12*
X123920000Y-78169999D03*
D13*
X124500000Y-78169999D03*
D14*
X129000000Y-78169999D03*
D11*
X132810000Y-75629998D03*
X131540000Y-73089999D03*
X126460000Y-73089999D03*
D13*
X133500000Y-78169999D03*
D12*
X134080000Y-78169999D03*
D15*
X125300000Y-85669999D03*
X125300000Y-82469999D03*
X132700000Y-82469999D03*
X132700000Y-85669999D03*
D16*
X136000000Y-75589999D03*
X123300000Y-73049999D03*
%TD*%
D11*
%TO.C,SW5*%
X145190000Y-75629999D03*
D12*
X143920000Y-78169999D03*
D13*
X144500000Y-78169999D03*
D14*
X149000000Y-78169999D03*
D11*
X152810000Y-75629998D03*
X151540000Y-73089999D03*
X146460000Y-73089999D03*
D13*
X153500000Y-78169999D03*
D12*
X154080000Y-78169999D03*
D15*
X145300000Y-85669999D03*
X145300000Y-82469999D03*
X152700000Y-82469999D03*
X152700000Y-85669999D03*
D16*
X156000000Y-75589999D03*
X143300000Y-73049999D03*
%TD*%
D11*
%TO.C,SW1*%
X125190000Y-55460000D03*
D12*
X123920000Y-58000000D03*
D13*
X124500000Y-58000000D03*
D14*
X129000000Y-58000000D03*
D11*
X132810000Y-55459999D03*
X131540000Y-52920000D03*
X126460000Y-52920000D03*
D13*
X133500000Y-58000000D03*
D12*
X134080000Y-58000000D03*
D15*
X125300000Y-65500000D03*
X125300000Y-62300000D03*
X132700000Y-62300000D03*
X132700000Y-65500000D03*
D16*
X136000000Y-55420000D03*
X123300000Y-52880000D03*
%TD*%
D11*
%TO.C,SW9*%
X165190000Y-95260000D03*
D12*
X163920000Y-97800000D03*
D13*
X164500000Y-97800000D03*
D14*
X169000000Y-97800000D03*
D11*
X172810000Y-95259999D03*
X171540000Y-92720000D03*
X166460000Y-92720000D03*
D13*
X173500000Y-97800000D03*
D12*
X174080000Y-97800000D03*
D15*
X165300000Y-105300000D03*
X165300000Y-102100000D03*
X172700000Y-102100000D03*
X172700000Y-105300000D03*
D16*
X176000000Y-95220000D03*
X163300000Y-92680000D03*
%TD*%
D11*
%TO.C,SW3*%
X165190000Y-55460000D03*
D12*
X163920000Y-58000000D03*
D13*
X164500000Y-58000000D03*
D14*
X169000000Y-58000000D03*
D11*
X172810000Y-55459999D03*
X171540000Y-52920000D03*
X166460000Y-52920000D03*
D13*
X173500000Y-58000000D03*
D12*
X174080000Y-58000000D03*
D15*
X165300000Y-65500000D03*
X165300000Y-62300000D03*
X172700000Y-62300000D03*
X172700000Y-65500000D03*
D16*
X176000000Y-55420000D03*
X163300000Y-52880000D03*
%TD*%
D11*
%TO.C,SW6*%
X165190000Y-75629999D03*
D12*
X163920000Y-78169999D03*
D13*
X164500000Y-78169999D03*
D14*
X169000000Y-78169999D03*
D11*
X172810000Y-75629998D03*
X171540000Y-73089999D03*
X166460000Y-73089999D03*
D13*
X173500000Y-78169999D03*
D12*
X174080000Y-78169999D03*
D15*
X165300000Y-85669999D03*
X165300000Y-82469999D03*
X172700000Y-82469999D03*
X172700000Y-85669999D03*
D16*
X176000000Y-75589999D03*
X163300000Y-73049999D03*
%TD*%
D11*
%TO.C,SW7*%
X125190000Y-95194999D03*
D12*
X123920000Y-97734999D03*
D13*
X124500000Y-97734999D03*
D14*
X129000000Y-97734999D03*
D11*
X132810000Y-95194998D03*
X131540000Y-92654999D03*
X126460000Y-92654999D03*
D13*
X133500000Y-97734999D03*
D12*
X134080000Y-97734999D03*
D15*
X125300000Y-105234999D03*
X125300000Y-102034999D03*
X132700000Y-102034999D03*
X132700000Y-105234999D03*
D16*
X136000000Y-95154999D03*
X123300000Y-92614999D03*
%TD*%
D11*
%TO.C,SW2*%
X145190000Y-55460000D03*
D12*
X143920000Y-58000000D03*
D13*
X144500000Y-58000000D03*
D14*
X149000000Y-58000000D03*
D11*
X152810000Y-55459999D03*
X151540000Y-52920000D03*
X146460000Y-52920000D03*
D13*
X153500000Y-58000000D03*
D12*
X154080000Y-58000000D03*
D15*
X145300000Y-65500000D03*
X145300000Y-62300000D03*
X152700000Y-62300000D03*
X152700000Y-65500000D03*
D16*
X156000000Y-55420000D03*
X143300000Y-52880000D03*
%TD*%
D11*
%TO.C,SW8*%
X145190000Y-95194999D03*
D12*
X143920000Y-97734999D03*
D13*
X144500000Y-97734999D03*
D14*
X149000000Y-97734999D03*
D11*
X152810000Y-95194998D03*
X151540000Y-92654999D03*
X146460000Y-92654999D03*
D13*
X153500000Y-97734999D03*
D12*
X154080000Y-97734999D03*
D15*
X145300000Y-105234999D03*
X145300000Y-102034999D03*
X152700000Y-102034999D03*
X152700000Y-105234999D03*
D16*
X156000000Y-95154999D03*
X143300000Y-92614999D03*
%TD*%
D17*
%TO.C,H5*%
X159000000Y-79800000D03*
D18*
X159000000Y-79800000D03*
%TD*%
D19*
%TO.C,D4*%
X130650000Y-69500000D03*
X127350000Y-69500000D03*
%TD*%
%TO.C,D7*%
X130650000Y-89000000D03*
X127350000Y-89000000D03*
%TD*%
D18*
%TO.C,H4*%
X84000000Y-105000000D03*
D17*
X84000000Y-105000000D03*
%TD*%
D19*
%TO.C,D1*%
X130650000Y-49500000D03*
X127350000Y-49500000D03*
%TD*%
D20*
%TO.C,U1*%
X101475000Y-106600000D03*
X106925000Y-106600000D03*
X101475000Y-106600000D03*
D21*
X106625000Y-103570000D03*
X106625000Y-103570000D03*
X101775000Y-103570000D03*
D20*
X106925000Y-106600000D03*
D21*
X101775000Y-103570000D03*
D22*
X113990000Y-106730000D03*
X113990000Y-104190000D03*
X113990000Y-101650000D03*
X113990000Y-99110000D03*
X113990000Y-96570000D03*
X113990000Y-94030000D03*
X113990000Y-91490000D03*
X113990000Y-88950000D03*
X113990000Y-86410000D03*
X113990000Y-83870000D03*
X113990000Y-81330000D03*
X113990000Y-78790000D03*
X113990000Y-76250000D03*
X113990000Y-73710000D03*
X113990000Y-71170000D03*
X113990000Y-68630000D03*
X113990000Y-66090000D03*
X113990000Y-63550000D03*
X113990000Y-61010000D03*
X113990000Y-58470000D03*
X94410000Y-58470000D03*
X94410000Y-61010000D03*
X94410000Y-63550000D03*
X94410000Y-66090000D03*
X94410000Y-68630000D03*
X94410000Y-71170000D03*
X94410000Y-73710000D03*
X94410000Y-76250000D03*
X94410000Y-78790000D03*
X94410000Y-81330000D03*
X94410000Y-83870000D03*
X94410000Y-86410000D03*
X94410000Y-88950000D03*
X94410000Y-91490000D03*
X94410000Y-94030000D03*
X94410000Y-96570000D03*
X94410000Y-99110000D03*
X94410000Y-101650000D03*
X94410000Y-104190000D03*
X94410000Y-106730000D03*
D23*
X106740000Y-57800000D03*
X104200000Y-57800000D03*
X101660000Y-57800000D03*
%TD*%
D19*
%TO.C,D5*%
X150650000Y-69500000D03*
X147350000Y-69500000D03*
%TD*%
%TO.C,D2*%
X150650000Y-49500000D03*
X147350000Y-49500000D03*
%TD*%
%TO.C,D9*%
X170300000Y-89000000D03*
X167000000Y-89000000D03*
%TD*%
D17*
%TO.C,H1*%
X84000000Y-49000000D03*
D18*
X84000000Y-49000000D03*
%TD*%
D19*
%TO.C,D3*%
X170850000Y-49500000D03*
X167550000Y-49500000D03*
%TD*%
D17*
%TO.C,H6*%
X120000000Y-79800000D03*
D18*
X120000000Y-79800000D03*
%TD*%
D17*
%TO.C,H3*%
X178000000Y-105000000D03*
D18*
X178000000Y-105000000D03*
%TD*%
D19*
%TO.C,D6*%
X171150000Y-69500000D03*
X167850000Y-69500000D03*
%TD*%
D18*
%TO.C,H2*%
X178000000Y-49000000D03*
D17*
X178000000Y-49000000D03*
%TD*%
D19*
%TO.C,D8*%
X150650000Y-89000000D03*
X147350000Y-89000000D03*
%TD*%
M02*
