M48
; DRILL file {KiCad 6.0.4-6f826c9f35~116~ubuntu20.04.1} date Sa 29 Okt 2022 14:34:24 CEST
; FORMAT={-:-/ absolute / metric / decimal}
; #@! TF.CreationDate,2022-10-29T14:34:24+02:00
; #@! TF.GenerationSoftware,Kicad,Pcbnew,6.0.4-6f826c9f35~116~ubuntu20.04.1
; #@! TF.FileFunction,NonPlated,1,2,NPTH
FMAT,2
METRIC
; #@! TA.AperFunction,NonPlated,NPTH,ComponentDrill
T1C1.500
; #@! TA.AperFunction,NonPlated,NPTH,ComponentDrill
T2C1.700
; #@! TA.AperFunction,NonPlated,NPTH,ComponentDrill
T3C1.800
; #@! TA.AperFunction,NonPlated,NPTH,ComponentDrill
T4C1.900
; #@! TA.AperFunction,NonPlated,NPTH,ComponentDrill
T5C3.000
; #@! TA.AperFunction,NonPlated,NPTH,ComponentDrill
T6C4.100
%
G90
G05
T1
X101.775Y-103.57
X101.775Y-103.57
X106.625Y-103.57
X106.625Y-103.57
T2
X124.5Y-58.0
X124.5Y-78.17
X124.5Y-97.735
X133.5Y-58.0
X133.5Y-78.17
X133.5Y-97.735
X144.5Y-58.0
X144.5Y-78.17
X144.5Y-97.735
X153.5Y-58.0
X153.5Y-78.17
X153.5Y-97.735
X164.5Y-58.0
X164.5Y-78.17
X164.5Y-97.8
X173.5Y-58.0
X173.5Y-78.17
X173.5Y-97.8
T3
X101.475Y-106.6
X101.475Y-106.6
X106.925Y-106.6
X106.925Y-106.6
T4
X123.92Y-58.0
X123.92Y-78.17
X123.92Y-97.735
X134.08Y-58.0
X134.08Y-78.17
X134.08Y-97.735
X143.92Y-58.0
X143.92Y-78.17
X143.92Y-97.735
X154.08Y-58.0
X154.08Y-78.17
X154.08Y-97.735
X163.92Y-58.0
X163.92Y-78.17
X163.92Y-97.8
X174.08Y-58.0
X174.08Y-78.17
X174.08Y-97.8
T5
X125.19Y-55.46
X125.19Y-75.63
X125.19Y-95.195
X126.46Y-52.92
X126.46Y-73.09
X126.46Y-92.655
X131.54Y-52.92
X131.54Y-73.09
X131.54Y-92.655
X132.81Y-55.46
X132.81Y-75.63
X132.81Y-95.195
X145.19Y-55.46
X145.19Y-75.63
X145.19Y-95.195
X146.46Y-52.92
X146.46Y-73.09
X146.46Y-92.655
X151.54Y-52.92
X151.54Y-73.09
X151.54Y-92.655
X152.81Y-55.46
X152.81Y-75.63
X152.81Y-95.195
X165.19Y-55.46
X165.19Y-75.63
X165.19Y-95.26
X166.46Y-52.92
X166.46Y-73.09
X166.46Y-92.72
X171.54Y-52.92
X171.54Y-73.09
X171.54Y-92.72
X172.81Y-55.46
X172.81Y-75.63
X172.81Y-95.26
T6
X129.0Y-58.0
X129.0Y-78.17
X129.0Y-97.735
X149.0Y-58.0
X149.0Y-78.17
X149.0Y-97.735
X169.0Y-58.0
X169.0Y-78.17
X169.0Y-97.8
T0
M30
