%TF.GenerationSoftware,KiCad,Pcbnew,6.0.4-6f826c9f35~116~ubuntu20.04.1*%
%TF.CreationDate,2022-10-29T14:33:56+02:00*%
%TF.ProjectId,SofleTestBoard,536f666c-6554-4657-9374-426f6172642e,rev?*%
%TF.SameCoordinates,Original*%
%TF.FileFunction,Soldermask,Bot*%
%TF.FilePolarity,Negative*%
%FSLAX46Y46*%
G04 Gerber Fmt 4.6, Leading zero omitted, Abs format (unit mm)*
G04 Created by KiCad (PCBNEW 6.0.4-6f826c9f35~116~ubuntu20.04.1) date 2022-10-29 14:33:56*
%MOMM*%
%LPD*%
G01*
G04 APERTURE LIST*
G04 Aperture macros list*
%AMFreePoly0*
4,1,22,0.550000,-0.750000,0.000000,-0.750000,0.000000,-0.745033,-0.079941,-0.743568,-0.215256,-0.701293,-0.333266,-0.622738,-0.424486,-0.514219,-0.481581,-0.384460,-0.499164,-0.250000,-0.500000,-0.250000,-0.500000,0.250000,-0.499164,0.250000,-0.499963,0.256109,-0.478152,0.396186,-0.417904,0.524511,-0.324060,0.630769,-0.204165,0.706417,-0.067858,0.745374,0.000000,0.744959,0.000000,0.750000,
0.550000,0.750000,0.550000,-0.750000,0.550000,-0.750000,$1*%
%AMFreePoly1*
4,1,20,0.000000,0.744959,0.073905,0.744508,0.209726,0.703889,0.328688,0.626782,0.421226,0.519385,0.479903,0.390333,0.500000,0.250000,0.500000,-0.250000,0.499851,-0.262216,0.476331,-0.402017,0.414519,-0.529596,0.319384,-0.634700,0.198574,-0.708877,0.061801,-0.746166,0.000000,-0.745033,0.000000,-0.750000,-0.550000,-0.750000,-0.550000,0.750000,0.000000,0.750000,0.000000,0.744959,
0.000000,0.744959,$1*%
G04 Aperture macros list end*
%ADD10C,0.250000*%
%ADD11C,3.000000*%
%ADD12C,1.900000*%
%ADD13C,1.700000*%
%ADD14C,4.100000*%
%ADD15R,1.600000X1.000000*%
%ADD16R,2.300000X2.000000*%
%ADD17C,2.900000*%
%ADD18C,5.000000*%
%ADD19R,0.900000X1.200000*%
%ADD20O,1.800000X1.800000*%
%ADD21O,1.500000X1.500000*%
%ADD22R,3.500000X1.700000*%
%ADD23R,1.700000X3.500000*%
%ADD24FreePoly0,270.000000*%
%ADD25R,1.500000X1.000000*%
%ADD26FreePoly1,270.000000*%
G04 APERTURE END LIST*
D10*
X92238095Y-50800476D02*
X92523809Y-50705238D01*
X93000000Y-50705238D01*
X93190476Y-50800476D01*
X93285714Y-50895714D01*
X93380952Y-51086190D01*
X93380952Y-51276666D01*
X93285714Y-51467142D01*
X93190476Y-51562380D01*
X93000000Y-51657619D01*
X92619047Y-51752857D01*
X92428571Y-51848095D01*
X92333333Y-51943333D01*
X92238095Y-52133809D01*
X92238095Y-52324285D01*
X92333333Y-52514761D01*
X92428571Y-52610000D01*
X92619047Y-52705238D01*
X93095238Y-52705238D01*
X93380952Y-52610000D01*
X94523809Y-50705238D02*
X94333333Y-50800476D01*
X94238095Y-50895714D01*
X94142857Y-51086190D01*
X94142857Y-51657619D01*
X94238095Y-51848095D01*
X94333333Y-51943333D01*
X94523809Y-52038571D01*
X94809523Y-52038571D01*
X95000000Y-51943333D01*
X95095238Y-51848095D01*
X95190476Y-51657619D01*
X95190476Y-51086190D01*
X95095238Y-50895714D01*
X95000000Y-50800476D01*
X94809523Y-50705238D01*
X94523809Y-50705238D01*
X95761904Y-52038571D02*
X96523809Y-52038571D01*
X96047619Y-50705238D02*
X96047619Y-52419523D01*
X96142857Y-52610000D01*
X96333333Y-52705238D01*
X96523809Y-52705238D01*
X97476190Y-50705238D02*
X97285714Y-50800476D01*
X97190476Y-50990952D01*
X97190476Y-52705238D01*
X98999999Y-50800476D02*
X98809523Y-50705238D01*
X98428571Y-50705238D01*
X98238095Y-50800476D01*
X98142857Y-50990952D01*
X98142857Y-51752857D01*
X98238095Y-51943333D01*
X98428571Y-52038571D01*
X98809523Y-52038571D01*
X98999999Y-51943333D01*
X99095238Y-51752857D01*
X99095238Y-51562380D01*
X98142857Y-51371904D01*
X99666666Y-52705238D02*
X100809523Y-52705238D01*
X100238095Y-50705238D02*
X100238095Y-52705238D01*
X102238095Y-50800476D02*
X102047619Y-50705238D01*
X101666666Y-50705238D01*
X101476190Y-50800476D01*
X101380952Y-50990952D01*
X101380952Y-51752857D01*
X101476190Y-51943333D01*
X101666666Y-52038571D01*
X102047619Y-52038571D01*
X102238095Y-51943333D01*
X102333333Y-51752857D01*
X102333333Y-51562380D01*
X101380952Y-51371904D01*
X103095238Y-50800476D02*
X103285714Y-50705238D01*
X103666666Y-50705238D01*
X103857142Y-50800476D01*
X103952380Y-50990952D01*
X103952380Y-51086190D01*
X103857142Y-51276666D01*
X103666666Y-51371904D01*
X103380952Y-51371904D01*
X103190476Y-51467142D01*
X103095238Y-51657619D01*
X103095238Y-51752857D01*
X103190476Y-51943333D01*
X103380952Y-52038571D01*
X103666666Y-52038571D01*
X103857142Y-51943333D01*
X104523809Y-52038571D02*
X105285714Y-52038571D01*
X104809523Y-52705238D02*
X104809523Y-50990952D01*
X104904761Y-50800476D01*
X105095238Y-50705238D01*
X105285714Y-50705238D01*
X106619047Y-51752857D02*
X106904761Y-51657619D01*
X106999999Y-51562380D01*
X107095238Y-51371904D01*
X107095238Y-51086190D01*
X106999999Y-50895714D01*
X106904761Y-50800476D01*
X106714285Y-50705238D01*
X105952380Y-50705238D01*
X105952380Y-52705238D01*
X106619047Y-52705238D01*
X106809523Y-52610000D01*
X106904761Y-52514761D01*
X106999999Y-52324285D01*
X106999999Y-52133809D01*
X106904761Y-51943333D01*
X106809523Y-51848095D01*
X106619047Y-51752857D01*
X105952380Y-51752857D01*
X108238095Y-50705238D02*
X108047619Y-50800476D01*
X107952380Y-50895714D01*
X107857142Y-51086190D01*
X107857142Y-51657619D01*
X107952380Y-51848095D01*
X108047619Y-51943333D01*
X108238095Y-52038571D01*
X108523809Y-52038571D01*
X108714285Y-51943333D01*
X108809523Y-51848095D01*
X108904761Y-51657619D01*
X108904761Y-51086190D01*
X108809523Y-50895714D01*
X108714285Y-50800476D01*
X108523809Y-50705238D01*
X108238095Y-50705238D01*
X110619047Y-50705238D02*
X110619047Y-51752857D01*
X110523809Y-51943333D01*
X110333333Y-52038571D01*
X109952380Y-52038571D01*
X109761904Y-51943333D01*
X110619047Y-50800476D02*
X110428571Y-50705238D01*
X109952380Y-50705238D01*
X109761904Y-50800476D01*
X109666666Y-50990952D01*
X109666666Y-51181428D01*
X109761904Y-51371904D01*
X109952380Y-51467142D01*
X110428571Y-51467142D01*
X110619047Y-51562380D01*
X111571428Y-50705238D02*
X111571428Y-52038571D01*
X111571428Y-51657619D02*
X111666666Y-51848095D01*
X111761904Y-51943333D01*
X111952380Y-52038571D01*
X112142857Y-52038571D01*
X113666666Y-50705238D02*
X113666666Y-52705238D01*
X113666666Y-50800476D02*
X113476190Y-50705238D01*
X113095238Y-50705238D01*
X112904761Y-50800476D01*
X112809523Y-50895714D01*
X112714285Y-51086190D01*
X112714285Y-51657619D01*
X112809523Y-51848095D01*
X112904761Y-51943333D01*
X113095238Y-52038571D01*
X113476190Y-52038571D01*
X113666666Y-51943333D01*
X95857142Y-47485238D02*
X95857142Y-49485238D01*
X95857142Y-48723333D02*
X96047619Y-48818571D01*
X96428571Y-48818571D01*
X96619047Y-48723333D01*
X96714285Y-48628095D01*
X96809523Y-48437619D01*
X96809523Y-47866190D01*
X96714285Y-47675714D01*
X96619047Y-47580476D01*
X96428571Y-47485238D01*
X96047619Y-47485238D01*
X95857142Y-47580476D01*
X97476190Y-48818571D02*
X97952380Y-47485238D01*
X98428571Y-48818571D02*
X97952380Y-47485238D01*
X97761904Y-47009047D01*
X97666666Y-46913809D01*
X97476190Y-46818571D01*
X101380952Y-48532857D02*
X100714285Y-48532857D01*
X100714285Y-47485238D02*
X100714285Y-49485238D01*
X101666666Y-49485238D01*
X102428571Y-47485238D02*
X102428571Y-48818571D01*
X102428571Y-48437619D02*
X102523809Y-48628095D01*
X102619047Y-48723333D01*
X102809523Y-48818571D01*
X103000000Y-48818571D01*
X104428571Y-47580476D02*
X104238095Y-47485238D01*
X103857142Y-47485238D01*
X103666666Y-47580476D01*
X103571428Y-47770952D01*
X103571428Y-48532857D01*
X103666666Y-48723333D01*
X103857142Y-48818571D01*
X104238095Y-48818571D01*
X104428571Y-48723333D01*
X104523809Y-48532857D01*
X104523809Y-48342380D01*
X103571428Y-48151904D01*
X106142857Y-47580476D02*
X105952380Y-47485238D01*
X105571428Y-47485238D01*
X105380952Y-47580476D01*
X105285714Y-47770952D01*
X105285714Y-48532857D01*
X105380952Y-48723333D01*
X105571428Y-48818571D01*
X105952380Y-48818571D01*
X106142857Y-48723333D01*
X106238095Y-48532857D01*
X106238095Y-48342380D01*
X105285714Y-48151904D01*
X106904761Y-48818571D02*
X107380952Y-47485238D01*
X107857142Y-48818571D01*
X108619047Y-47485238D02*
X108619047Y-48818571D01*
X108619047Y-49485238D02*
X108523809Y-49390000D01*
X108619047Y-49294761D01*
X108714285Y-49390000D01*
X108619047Y-49485238D01*
X108619047Y-49294761D01*
X109380952Y-48818571D02*
X109857142Y-47485238D01*
X110333333Y-48818571D01*
D11*
%TO.C,SW4*%
X125190000Y-75629999D03*
D12*
X123920000Y-78169999D03*
D13*
X124500000Y-78169999D03*
D14*
X129000000Y-78169999D03*
D11*
X132810000Y-75629998D03*
X131540000Y-73089999D03*
X126460000Y-73089999D03*
D13*
X133500000Y-78169999D03*
D12*
X134080000Y-78169999D03*
D15*
X125300000Y-82469999D03*
X125300000Y-85669999D03*
X132700000Y-85669999D03*
X132700000Y-82469999D03*
D16*
X122000000Y-75589999D03*
X134700000Y-73049999D03*
%TD*%
D11*
%TO.C,SW5*%
X145190000Y-75629999D03*
D12*
X143920000Y-78169999D03*
D13*
X144500000Y-78169999D03*
D14*
X149000000Y-78169999D03*
D11*
X152810000Y-75629998D03*
X151540000Y-73089999D03*
X146460000Y-73089999D03*
D13*
X153500000Y-78169999D03*
D12*
X154080000Y-78169999D03*
D15*
X145300000Y-82469999D03*
X145300000Y-85669999D03*
X152700000Y-85669999D03*
X152700000Y-82469999D03*
D16*
X142000000Y-75589999D03*
X154700000Y-73049999D03*
%TD*%
D11*
%TO.C,SW1*%
X125190000Y-55460000D03*
D12*
X123920000Y-58000000D03*
D13*
X124500000Y-58000000D03*
D14*
X129000000Y-58000000D03*
D11*
X132810000Y-55459999D03*
X131540000Y-52920000D03*
X126460000Y-52920000D03*
D13*
X133500000Y-58000000D03*
D12*
X134080000Y-58000000D03*
D15*
X125300000Y-62300000D03*
X125300000Y-65500000D03*
X132700000Y-65500000D03*
X132700000Y-62300000D03*
D16*
X122000000Y-55420000D03*
X134700000Y-52880000D03*
%TD*%
D11*
%TO.C,SW9*%
X165190000Y-95260000D03*
D12*
X163920000Y-97800000D03*
D13*
X164500000Y-97800000D03*
D14*
X169000000Y-97800000D03*
D11*
X172810000Y-95259999D03*
X171540000Y-92720000D03*
X166460000Y-92720000D03*
D13*
X173500000Y-97800000D03*
D12*
X174080000Y-97800000D03*
D15*
X165300000Y-102100000D03*
X165300000Y-105300000D03*
X172700000Y-105300000D03*
X172700000Y-102100000D03*
D16*
X162000000Y-95220000D03*
X174700000Y-92680000D03*
%TD*%
D11*
%TO.C,SW3*%
X165190000Y-55460000D03*
D12*
X163920000Y-58000000D03*
D13*
X164500000Y-58000000D03*
D14*
X169000000Y-58000000D03*
D11*
X172810000Y-55459999D03*
X171540000Y-52920000D03*
X166460000Y-52920000D03*
D13*
X173500000Y-58000000D03*
D12*
X174080000Y-58000000D03*
D15*
X165300000Y-62300000D03*
X165300000Y-65500000D03*
X172700000Y-65500000D03*
X172700000Y-62300000D03*
D16*
X162000000Y-55420000D03*
X174700000Y-52880000D03*
%TD*%
D11*
%TO.C,SW6*%
X165190000Y-75629999D03*
D12*
X163920000Y-78169999D03*
D13*
X164500000Y-78169999D03*
D14*
X169000000Y-78169999D03*
D11*
X172810000Y-75629998D03*
X171540000Y-73089999D03*
X166460000Y-73089999D03*
D13*
X173500000Y-78169999D03*
D12*
X174080000Y-78169999D03*
D15*
X165300000Y-82469999D03*
X165300000Y-85669999D03*
X172700000Y-85669999D03*
X172700000Y-82469999D03*
D16*
X162000000Y-75589999D03*
X174700000Y-73049999D03*
%TD*%
D11*
%TO.C,SW7*%
X125190000Y-95194999D03*
D12*
X123920000Y-97734999D03*
D13*
X124500000Y-97734999D03*
D14*
X129000000Y-97734999D03*
D11*
X132810000Y-95194998D03*
X131540000Y-92654999D03*
X126460000Y-92654999D03*
D13*
X133500000Y-97734999D03*
D12*
X134080000Y-97734999D03*
D15*
X125300000Y-102034999D03*
X125300000Y-105234999D03*
X132700000Y-105234999D03*
X132700000Y-102034999D03*
D16*
X122000000Y-95154999D03*
X134700000Y-92614999D03*
%TD*%
D11*
%TO.C,SW2*%
X145190000Y-55460000D03*
D12*
X143920000Y-58000000D03*
D13*
X144500000Y-58000000D03*
D14*
X149000000Y-58000000D03*
D11*
X152810000Y-55459999D03*
X151540000Y-52920000D03*
X146460000Y-52920000D03*
D13*
X153500000Y-58000000D03*
D12*
X154080000Y-58000000D03*
D15*
X145300000Y-62300000D03*
X145300000Y-65500000D03*
X152700000Y-65500000D03*
X152700000Y-62300000D03*
D16*
X142000000Y-55420000D03*
X154700000Y-52880000D03*
%TD*%
D11*
%TO.C,SW8*%
X145190000Y-95194999D03*
D12*
X143920000Y-97734999D03*
D13*
X144500000Y-97734999D03*
D14*
X149000000Y-97734999D03*
D11*
X152810000Y-95194998D03*
X151540000Y-92654999D03*
X146460000Y-92654999D03*
D13*
X153500000Y-97734999D03*
D12*
X154080000Y-97734999D03*
D15*
X145300000Y-102034999D03*
X145300000Y-105234999D03*
X152700000Y-105234999D03*
X152700000Y-102034999D03*
D16*
X142000000Y-95154999D03*
X154700000Y-92614999D03*
%TD*%
D17*
%TO.C,H5*%
X159000000Y-79800000D03*
D18*
X159000000Y-79800000D03*
%TD*%
D19*
%TO.C,D4*%
X127350000Y-69500000D03*
X130650000Y-69500000D03*
%TD*%
%TO.C,D7*%
X127350000Y-89000000D03*
X130650000Y-89000000D03*
%TD*%
D18*
%TO.C,H4*%
X84000000Y-105000000D03*
D17*
X84000000Y-105000000D03*
%TD*%
D19*
%TO.C,D1*%
X127350000Y-49500000D03*
X130650000Y-49500000D03*
%TD*%
D20*
%TO.C,U1*%
X101475000Y-106600000D03*
X106925000Y-106600000D03*
X101475000Y-106600000D03*
D21*
X106625000Y-103570000D03*
X106625000Y-103570000D03*
X101775000Y-103570000D03*
D20*
X106925000Y-106600000D03*
D21*
X101775000Y-103570000D03*
D22*
X94410000Y-106730000D03*
X94410000Y-104190000D03*
X94410000Y-101650000D03*
X94410000Y-99110000D03*
X94410000Y-96570000D03*
X94410000Y-94030000D03*
X94410000Y-91490000D03*
X94410000Y-88950000D03*
X94410000Y-86410000D03*
X94410000Y-83870000D03*
X94410000Y-81330000D03*
X94410000Y-78790000D03*
X94410000Y-76250000D03*
X94410000Y-73710000D03*
X94410000Y-71170000D03*
X94410000Y-68630000D03*
X94410000Y-66090000D03*
X94410000Y-63550000D03*
X94410000Y-61010000D03*
X94410000Y-58470000D03*
X113990000Y-58470000D03*
X113990000Y-61010000D03*
X113990000Y-63550000D03*
X113990000Y-66090000D03*
X113990000Y-68630000D03*
X113990000Y-71170000D03*
X113990000Y-73710000D03*
X113990000Y-76250000D03*
X113990000Y-78790000D03*
X113990000Y-81330000D03*
X113990000Y-83870000D03*
X113990000Y-86410000D03*
X113990000Y-88950000D03*
X113990000Y-91490000D03*
X113990000Y-94030000D03*
X113990000Y-96570000D03*
X113990000Y-99110000D03*
X113990000Y-101650000D03*
X113990000Y-104190000D03*
X113990000Y-106730000D03*
D23*
X101660000Y-57800000D03*
X104200000Y-57800000D03*
X106740000Y-57800000D03*
%TD*%
D19*
%TO.C,D5*%
X147350000Y-69500000D03*
X150650000Y-69500000D03*
%TD*%
%TO.C,D2*%
X147350000Y-49500000D03*
X150650000Y-49500000D03*
%TD*%
%TO.C,D9*%
X167000000Y-89000000D03*
X170300000Y-89000000D03*
%TD*%
D17*
%TO.C,H1*%
X84000000Y-49000000D03*
D18*
X84000000Y-49000000D03*
%TD*%
D19*
%TO.C,D3*%
X167550000Y-49500000D03*
X170850000Y-49500000D03*
%TD*%
D17*
%TO.C,H6*%
X120000000Y-79800000D03*
D18*
X120000000Y-79800000D03*
%TD*%
%TO.C,H3*%
X178000000Y-105000000D03*
D17*
X178000000Y-105000000D03*
%TD*%
D19*
%TO.C,D6*%
X167850000Y-69500000D03*
X171150000Y-69500000D03*
%TD*%
D18*
%TO.C,H2*%
X178000000Y-49000000D03*
D17*
X178000000Y-49000000D03*
%TD*%
D19*
%TO.C,D8*%
X147350000Y-89000000D03*
X150650000Y-89000000D03*
%TD*%
D24*
%TO.C,JP1*%
X177000000Y-62700000D03*
D25*
X177000000Y-64000000D03*
D26*
X177000000Y-65300000D03*
%TD*%
M02*
