%TF.GenerationSoftware,KiCad,Pcbnew,6.0.4-6f826c9f35~116~ubuntu20.04.1*%
%TF.CreationDate,2022-10-29T14:33:56+02:00*%
%TF.ProjectId,SofleTestBoard,536f666c-6554-4657-9374-426f6172642e,rev?*%
%TF.SameCoordinates,Original*%
%TF.FileFunction,Legend,Bot*%
%TF.FilePolarity,Positive*%
%FSLAX46Y46*%
G04 Gerber Fmt 4.6, Leading zero omitted, Abs format (unit mm)*
G04 Created by KiCad (PCBNEW 6.0.4-6f826c9f35~116~ubuntu20.04.1) date 2022-10-29 14:33:56*
%MOMM*%
%LPD*%
G01*
G04 APERTURE LIST*
G04 Aperture macros list*
%AMFreePoly0*
4,1,22,0.550000,-0.750000,0.000000,-0.750000,0.000000,-0.745033,-0.079941,-0.743568,-0.215256,-0.701293,-0.333266,-0.622738,-0.424486,-0.514219,-0.481581,-0.384460,-0.499164,-0.250000,-0.500000,-0.250000,-0.500000,0.250000,-0.499164,0.250000,-0.499963,0.256109,-0.478152,0.396186,-0.417904,0.524511,-0.324060,0.630769,-0.204165,0.706417,-0.067858,0.745374,0.000000,0.744959,0.000000,0.750000,
0.550000,0.750000,0.550000,-0.750000,0.550000,-0.750000,$1*%
%AMFreePoly1*
4,1,20,0.000000,0.744959,0.073905,0.744508,0.209726,0.703889,0.328688,0.626782,0.421226,0.519385,0.479903,0.390333,0.500000,0.250000,0.500000,-0.250000,0.499851,-0.262216,0.476331,-0.402017,0.414519,-0.529596,0.319384,-0.634700,0.198574,-0.708877,0.061801,-0.746166,0.000000,-0.745033,0.000000,-0.750000,-0.550000,-0.750000,-0.550000,0.750000,0.000000,0.750000,0.000000,0.744959,
0.000000,0.744959,$1*%
G04 Aperture macros list end*
%ADD10C,0.150000*%
%ADD11C,0.500000*%
%ADD12C,0.400000*%
%ADD13C,1.000000*%
%ADD14C,0.300000*%
%ADD15C,3.500000*%
%ADD16C,0.800000*%
%ADD17C,3.000000*%
%ADD18C,0.120000*%
%ADD19C,0.250000*%
%ADD20C,3.000000*%
%ADD21C,1.900000*%
%ADD22C,1.700000*%
%ADD23C,4.100000*%
%ADD24R,1.600000X1.000000*%
%ADD25R,2.300000X2.000000*%
%ADD26C,2.900000*%
%ADD27C,5.000000*%
%ADD28R,0.900000X1.200000*%
%ADD29O,1.800000X1.800000*%
%ADD30O,1.500000X1.500000*%
%ADD31R,3.500000X1.700000*%
%ADD32R,1.700000X3.500000*%
%ADD33FreePoly0,270.000000*%
%ADD34R,1.500000X1.000000*%
%ADD35FreePoly1,270.000000*%
G04 APERTURE END LIST*
D10*
%TO.C,U1*%
X90813096Y-83778781D02*
X90732284Y-83751844D01*
X90651471Y-83671032D01*
X90597597Y-83563282D01*
X90597597Y-83455532D01*
X90624534Y-83374720D01*
X90705346Y-83240033D01*
X90786158Y-83159221D01*
X90920845Y-83078409D01*
X91001658Y-83051471D01*
X91109407Y-83051471D01*
X91217157Y-83105346D01*
X91271032Y-83159221D01*
X91324906Y-83266971D01*
X91324906Y-83320845D01*
X91136345Y-83509407D01*
X91028595Y-83401658D01*
X91621218Y-83509407D02*
X91055532Y-84075093D01*
X91271032Y-84290592D01*
X91351844Y-84317529D01*
X91405719Y-84317529D01*
X91486531Y-84290592D01*
X91567343Y-84209780D01*
X91594280Y-84128967D01*
X91594280Y-84075093D01*
X91567343Y-83994280D01*
X91351844Y-83778781D01*
X91567343Y-84586903D02*
X91944467Y-84964027D01*
X92267715Y-84155905D01*
X90189722Y-59514407D02*
X90108910Y-59487470D01*
X90028097Y-59406658D01*
X89974223Y-59298908D01*
X89974223Y-59191158D01*
X90001160Y-59110346D01*
X90081972Y-58975659D01*
X90162784Y-58894847D01*
X90297471Y-58814035D01*
X90378284Y-58787097D01*
X90486033Y-58787097D01*
X90593783Y-58840972D01*
X90647658Y-58894847D01*
X90701532Y-59002597D01*
X90701532Y-59056471D01*
X90512971Y-59245033D01*
X90405221Y-59137284D01*
X90997844Y-59245033D02*
X90432158Y-59810719D01*
X90647658Y-60026218D01*
X90728470Y-60053155D01*
X90782345Y-60053155D01*
X90863157Y-60026218D01*
X90943969Y-59945406D01*
X90970906Y-59864593D01*
X90970906Y-59810719D01*
X90943969Y-59729906D01*
X90728470Y-59514407D01*
X91859841Y-60107030D02*
X91536592Y-59783781D01*
X91698216Y-59945406D02*
X91132531Y-60511091D01*
X91159468Y-60376404D01*
X91159468Y-60268654D01*
X91132531Y-60187842D01*
X91805966Y-61184526D02*
X91536592Y-60915152D01*
X91779028Y-60618841D01*
X91779028Y-60672715D01*
X91805966Y-60753528D01*
X91940653Y-60888215D01*
X92021465Y-60915152D01*
X92075340Y-60915152D01*
X92156152Y-60888215D01*
X92290839Y-60753528D01*
X92317776Y-60672715D01*
X92317776Y-60618841D01*
X92290839Y-60538028D01*
X92156152Y-60403341D01*
X92075340Y-60376404D01*
X92021465Y-60376404D01*
X116297722Y-83479407D02*
X116216910Y-83452470D01*
X116136097Y-83371658D01*
X116082223Y-83263908D01*
X116082223Y-83156158D01*
X116109160Y-83075346D01*
X116189972Y-82940659D01*
X116270784Y-82859847D01*
X116405471Y-82779035D01*
X116486284Y-82752097D01*
X116594033Y-82752097D01*
X116701783Y-82805972D01*
X116755658Y-82859847D01*
X116809532Y-82967597D01*
X116809532Y-83021471D01*
X116620971Y-83210033D01*
X116513221Y-83102284D01*
X117105844Y-83210033D02*
X116540158Y-83775719D01*
X116755658Y-83991218D01*
X116836470Y-84018155D01*
X116890345Y-84018155D01*
X116971157Y-83991218D01*
X117051969Y-83910406D01*
X117078906Y-83829593D01*
X117078906Y-83775719D01*
X117051969Y-83694906D01*
X116836470Y-83479407D01*
X117132781Y-84260592D02*
X117132781Y-84314467D01*
X117159719Y-84395279D01*
X117294406Y-84529966D01*
X117375218Y-84556903D01*
X117429093Y-84556903D01*
X117509905Y-84529966D01*
X117563780Y-84476091D01*
X117617654Y-84368341D01*
X117617654Y-83721844D01*
X117967841Y-84072030D01*
X117887028Y-85122589D02*
X117779279Y-85014839D01*
X117752341Y-84934027D01*
X117752341Y-84880152D01*
X117779279Y-84745465D01*
X117860091Y-84610778D01*
X118075590Y-84395279D01*
X118156402Y-84368341D01*
X118210277Y-84368341D01*
X118291089Y-84395279D01*
X118398839Y-84503028D01*
X118425776Y-84583841D01*
X118425776Y-84637715D01*
X118398839Y-84718528D01*
X118264152Y-84853215D01*
X118183340Y-84880152D01*
X118129465Y-84880152D01*
X118048653Y-84853215D01*
X117940903Y-84745465D01*
X117913966Y-84664653D01*
X117913966Y-84610778D01*
X117940903Y-84529966D01*
X90043722Y-70504408D02*
X89962910Y-70477471D01*
X89882097Y-70396659D01*
X89828223Y-70288909D01*
X89828223Y-70181159D01*
X89855160Y-70100347D01*
X89935972Y-69965660D01*
X90016784Y-69884848D01*
X90151471Y-69804036D01*
X90232284Y-69777098D01*
X90340033Y-69777098D01*
X90447783Y-69830973D01*
X90501658Y-69884848D01*
X90555532Y-69992598D01*
X90555532Y-70046472D01*
X90366971Y-70235034D01*
X90259221Y-70127285D01*
X90851844Y-70235034D02*
X90286158Y-70800720D01*
X90501658Y-71016219D01*
X90582470Y-71043156D01*
X90636345Y-71043156D01*
X90717157Y-71016219D01*
X90797969Y-70935407D01*
X90824906Y-70854594D01*
X90824906Y-70800720D01*
X90797969Y-70719907D01*
X90582470Y-70504408D01*
X91713841Y-71097031D02*
X91390592Y-70773782D01*
X91552216Y-70935407D02*
X90986531Y-71501092D01*
X91013468Y-71366405D01*
X91013468Y-71258655D01*
X90986531Y-71177843D01*
X91417529Y-71824341D02*
X91417529Y-71878216D01*
X91444467Y-71959028D01*
X91579154Y-72093715D01*
X91659966Y-72120652D01*
X91713841Y-72120652D01*
X91794653Y-72093715D01*
X91848528Y-72039840D01*
X91902402Y-71932090D01*
X91902402Y-71285593D01*
X92252589Y-71635779D01*
X90686158Y-88801844D02*
X90605346Y-88774906D01*
X90524534Y-88694094D01*
X90470659Y-88586345D01*
X90470659Y-88478595D01*
X90497597Y-88397783D01*
X90578409Y-88263096D01*
X90659221Y-88182284D01*
X90793908Y-88101471D01*
X90874720Y-88074534D01*
X90982470Y-88074534D01*
X91090219Y-88128409D01*
X91144094Y-88182284D01*
X91197969Y-88290033D01*
X91197969Y-88343908D01*
X91009407Y-88532470D01*
X90901658Y-88424720D01*
X91494280Y-88532470D02*
X90928595Y-89098155D01*
X91817529Y-88855719D01*
X91251844Y-89421404D01*
X92086903Y-89125093D02*
X91521218Y-89690778D01*
X91655905Y-89825465D01*
X91763654Y-89879340D01*
X91871404Y-89879340D01*
X91952216Y-89852402D01*
X92086903Y-89771590D01*
X92167715Y-89690778D01*
X92248528Y-89556091D01*
X92275465Y-89475279D01*
X92275465Y-89367529D01*
X92221590Y-89259780D01*
X92086903Y-89125093D01*
X90143722Y-62884408D02*
X90062910Y-62857471D01*
X89982097Y-62776659D01*
X89928223Y-62668909D01*
X89928223Y-62561159D01*
X89955160Y-62480347D01*
X90035972Y-62345660D01*
X90116784Y-62264848D01*
X90251471Y-62184036D01*
X90332284Y-62157098D01*
X90440033Y-62157098D01*
X90547783Y-62210973D01*
X90601658Y-62264848D01*
X90655532Y-62372598D01*
X90655532Y-62426472D01*
X90466971Y-62615034D01*
X90359221Y-62507285D01*
X90951844Y-62615034D02*
X90386158Y-63180720D01*
X90601658Y-63396219D01*
X90682470Y-63423156D01*
X90736345Y-63423156D01*
X90817157Y-63396219D01*
X90897969Y-63315407D01*
X90924906Y-63234594D01*
X90924906Y-63180720D01*
X90897969Y-63099907D01*
X90682470Y-62884408D01*
X91813841Y-63477031D02*
X91490592Y-63153782D01*
X91652216Y-63315407D02*
X91086531Y-63881092D01*
X91113468Y-63746405D01*
X91113468Y-63638655D01*
X91086531Y-63557843D01*
X91921590Y-64339028D02*
X92298714Y-63961904D01*
X91571404Y-64419840D02*
X91840778Y-63881092D01*
X92190964Y-64231278D01*
X116286158Y-101501844D02*
X116205346Y-101474906D01*
X116124534Y-101394094D01*
X116070659Y-101286345D01*
X116070659Y-101178595D01*
X116097597Y-101097783D01*
X116178409Y-100963096D01*
X116259221Y-100882284D01*
X116393908Y-100801471D01*
X116474720Y-100774534D01*
X116582470Y-100774534D01*
X116690219Y-100828409D01*
X116744094Y-100882284D01*
X116797969Y-100990033D01*
X116797969Y-101043908D01*
X116609407Y-101232470D01*
X116501658Y-101124720D01*
X117094280Y-101232470D02*
X116528595Y-101798155D01*
X117417529Y-101555719D01*
X116851844Y-102121404D01*
X117686903Y-101825093D02*
X117121218Y-102390778D01*
X117255905Y-102525465D01*
X117363654Y-102579340D01*
X117471404Y-102579340D01*
X117552216Y-102552402D01*
X117686903Y-102471590D01*
X117767715Y-102390778D01*
X117848528Y-102256091D01*
X117875465Y-102175279D01*
X117875465Y-102067529D01*
X117821590Y-101959780D01*
X117686903Y-101825093D01*
X116297722Y-65699407D02*
X116216910Y-65672470D01*
X116136097Y-65591658D01*
X116082223Y-65483908D01*
X116082223Y-65376158D01*
X116109160Y-65295346D01*
X116189972Y-65160659D01*
X116270784Y-65079847D01*
X116405471Y-64999035D01*
X116486284Y-64972097D01*
X116594033Y-64972097D01*
X116701783Y-65025972D01*
X116755658Y-65079847D01*
X116809532Y-65187597D01*
X116809532Y-65241471D01*
X116620971Y-65430033D01*
X116513221Y-65322284D01*
X117105844Y-65430033D02*
X116540158Y-65995719D01*
X116755658Y-66211218D01*
X116836470Y-66238155D01*
X116890345Y-66238155D01*
X116971157Y-66211218D01*
X117051969Y-66130406D01*
X117078906Y-66049593D01*
X117078906Y-65995719D01*
X117051969Y-65914906D01*
X116836470Y-65699407D01*
X117967841Y-66292030D02*
X117644592Y-65968781D01*
X117806216Y-66130406D02*
X117240531Y-66696091D01*
X117267468Y-66561404D01*
X117267468Y-66453654D01*
X117240531Y-66372842D01*
X117967841Y-66938528D02*
X117887028Y-66911590D01*
X117833154Y-66911590D01*
X117752341Y-66938528D01*
X117725404Y-66965465D01*
X117698467Y-67046277D01*
X117698467Y-67100152D01*
X117725404Y-67180964D01*
X117833154Y-67288714D01*
X117913966Y-67315651D01*
X117967841Y-67315651D01*
X118048653Y-67288714D01*
X118075590Y-67261776D01*
X118102528Y-67180964D01*
X118102528Y-67127089D01*
X118075590Y-67046277D01*
X117967841Y-66938528D01*
X117940903Y-66857715D01*
X117940903Y-66803841D01*
X117967841Y-66723028D01*
X118075590Y-66615279D01*
X118156402Y-66588341D01*
X118210277Y-66588341D01*
X118291089Y-66615279D01*
X118398839Y-66723028D01*
X118425776Y-66803841D01*
X118425776Y-66857715D01*
X118398839Y-66938528D01*
X118291089Y-67046277D01*
X118210277Y-67073215D01*
X118156402Y-67073215D01*
X118075590Y-67046277D01*
X116297722Y-78399407D02*
X116216910Y-78372470D01*
X116136097Y-78291658D01*
X116082223Y-78183908D01*
X116082223Y-78076158D01*
X116109160Y-77995346D01*
X116189972Y-77860659D01*
X116270784Y-77779847D01*
X116405471Y-77699035D01*
X116486284Y-77672097D01*
X116594033Y-77672097D01*
X116701783Y-77725972D01*
X116755658Y-77779847D01*
X116809532Y-77887597D01*
X116809532Y-77941471D01*
X116620971Y-78130033D01*
X116513221Y-78022284D01*
X117105844Y-78130033D02*
X116540158Y-78695719D01*
X116755658Y-78911218D01*
X116836470Y-78938155D01*
X116890345Y-78938155D01*
X116971157Y-78911218D01*
X117051969Y-78830406D01*
X117078906Y-78749593D01*
X117078906Y-78695719D01*
X117051969Y-78614906D01*
X116836470Y-78399407D01*
X117132781Y-79180592D02*
X117132781Y-79234467D01*
X117159719Y-79315279D01*
X117294406Y-79449966D01*
X117375218Y-79476903D01*
X117429093Y-79476903D01*
X117509905Y-79449966D01*
X117563780Y-79396091D01*
X117617654Y-79288341D01*
X117617654Y-78641844D01*
X117967841Y-78992030D01*
X117671529Y-79719340D02*
X117671529Y-79773215D01*
X117698467Y-79854027D01*
X117833154Y-79988714D01*
X117913966Y-80015651D01*
X117967841Y-80015651D01*
X118048653Y-79988714D01*
X118102528Y-79934839D01*
X118156402Y-79827089D01*
X118156402Y-79180592D01*
X118506589Y-79530778D01*
X90713096Y-86288781D02*
X90632284Y-86261844D01*
X90551471Y-86181032D01*
X90497597Y-86073282D01*
X90497597Y-85965532D01*
X90524534Y-85884720D01*
X90605346Y-85750033D01*
X90686158Y-85669221D01*
X90820845Y-85588409D01*
X90901658Y-85561471D01*
X91009407Y-85561471D01*
X91117157Y-85615346D01*
X91171032Y-85669221D01*
X91224906Y-85776971D01*
X91224906Y-85830845D01*
X91036345Y-86019407D01*
X90928595Y-85911658D01*
X91521218Y-86019407D02*
X90955532Y-86585093D01*
X91171032Y-86800592D01*
X91251844Y-86827529D01*
X91305719Y-86827529D01*
X91386531Y-86800592D01*
X91467343Y-86719780D01*
X91494280Y-86638967D01*
X91494280Y-86585093D01*
X91467343Y-86504280D01*
X91251844Y-86288781D01*
X91763654Y-87393215D02*
X91655905Y-87285465D01*
X91628967Y-87204653D01*
X91628967Y-87150778D01*
X91655905Y-87016091D01*
X91736717Y-86881404D01*
X91952216Y-86665905D01*
X92033028Y-86638967D01*
X92086903Y-86638967D01*
X92167715Y-86665905D01*
X92275465Y-86773654D01*
X92302402Y-86854467D01*
X92302402Y-86908341D01*
X92275465Y-86989154D01*
X92140778Y-87123841D01*
X92059966Y-87150778D01*
X92006091Y-87150778D01*
X91925279Y-87123841D01*
X91817529Y-87016091D01*
X91790592Y-86935279D01*
X91790592Y-86881404D01*
X91817529Y-86800592D01*
X116286158Y-63401844D02*
X116205346Y-63374906D01*
X116124534Y-63294094D01*
X116070659Y-63186345D01*
X116070659Y-63078595D01*
X116097597Y-62997783D01*
X116178409Y-62863096D01*
X116259221Y-62782284D01*
X116393908Y-62701471D01*
X116474720Y-62674534D01*
X116582470Y-62674534D01*
X116690219Y-62728409D01*
X116744094Y-62782284D01*
X116797969Y-62890033D01*
X116797969Y-62943908D01*
X116609407Y-63132470D01*
X116501658Y-63024720D01*
X117094280Y-63132470D02*
X116528595Y-63698155D01*
X117417529Y-63455719D01*
X116851844Y-64021404D01*
X117686903Y-63725093D02*
X117121218Y-64290778D01*
X117255905Y-64425465D01*
X117363654Y-64479340D01*
X117471404Y-64479340D01*
X117552216Y-64452402D01*
X117686903Y-64371590D01*
X117767715Y-64290778D01*
X117848528Y-64156091D01*
X117875465Y-64075279D01*
X117875465Y-63967529D01*
X117821590Y-63859780D01*
X117686903Y-63725093D01*
X116286158Y-76101844D02*
X116205346Y-76074906D01*
X116124534Y-75994094D01*
X116070659Y-75886345D01*
X116070659Y-75778595D01*
X116097597Y-75697783D01*
X116178409Y-75563096D01*
X116259221Y-75482284D01*
X116393908Y-75401471D01*
X116474720Y-75374534D01*
X116582470Y-75374534D01*
X116690219Y-75428409D01*
X116744094Y-75482284D01*
X116797969Y-75590033D01*
X116797969Y-75643908D01*
X116609407Y-75832470D01*
X116501658Y-75724720D01*
X117094280Y-75832470D02*
X116528595Y-76398155D01*
X117417529Y-76155719D01*
X116851844Y-76721404D01*
X117686903Y-76425093D02*
X117121218Y-76990778D01*
X117255905Y-77125465D01*
X117363654Y-77179340D01*
X117471404Y-77179340D01*
X117552216Y-77152402D01*
X117686903Y-77071590D01*
X117767715Y-76990778D01*
X117848528Y-76856091D01*
X117875465Y-76775279D01*
X117875465Y-76667529D01*
X117821590Y-76559780D01*
X117686903Y-76425093D01*
X116297722Y-73309407D02*
X116216910Y-73282470D01*
X116136097Y-73201658D01*
X116082223Y-73093908D01*
X116082223Y-72986158D01*
X116109160Y-72905346D01*
X116189972Y-72770659D01*
X116270784Y-72689847D01*
X116405471Y-72609035D01*
X116486284Y-72582097D01*
X116594033Y-72582097D01*
X116701783Y-72635972D01*
X116755658Y-72689847D01*
X116809532Y-72797597D01*
X116809532Y-72851471D01*
X116620971Y-73040033D01*
X116513221Y-72932284D01*
X117105844Y-73040033D02*
X116540158Y-73605719D01*
X116755658Y-73821218D01*
X116836470Y-73848155D01*
X116890345Y-73848155D01*
X116971157Y-73821218D01*
X117051969Y-73740406D01*
X117078906Y-73659593D01*
X117078906Y-73605719D01*
X117051969Y-73524906D01*
X116836470Y-73309407D01*
X117132781Y-74090592D02*
X117132781Y-74144467D01*
X117159719Y-74225279D01*
X117294406Y-74359966D01*
X117375218Y-74386903D01*
X117429093Y-74386903D01*
X117509905Y-74359966D01*
X117563780Y-74306091D01*
X117617654Y-74198341D01*
X117617654Y-73551844D01*
X117967841Y-73902030D01*
X118506589Y-74440778D02*
X118183340Y-74117529D01*
X118344964Y-74279154D02*
X117779279Y-74844839D01*
X117806216Y-74710152D01*
X117806216Y-74602402D01*
X117779279Y-74521590D01*
X116089847Y-96109407D02*
X116440033Y-96459593D01*
X116466971Y-96055532D01*
X116547783Y-96136345D01*
X116628595Y-96163282D01*
X116682470Y-96163282D01*
X116763282Y-96136345D01*
X116897969Y-96001658D01*
X116924906Y-95920845D01*
X116924906Y-95866971D01*
X116897969Y-95786158D01*
X116736345Y-95624534D01*
X116655532Y-95597597D01*
X116601658Y-95597597D01*
X116601658Y-96621218D02*
X117355905Y-96244094D01*
X116978781Y-96998341D01*
X117113468Y-97133028D02*
X117463654Y-97483215D01*
X117490592Y-97079154D01*
X117571404Y-97159966D01*
X117652216Y-97186903D01*
X117706091Y-97186903D01*
X117786903Y-97159966D01*
X117921590Y-97025279D01*
X117948528Y-96944467D01*
X117948528Y-96890592D01*
X117921590Y-96809780D01*
X117759966Y-96648155D01*
X117679154Y-96621218D01*
X117625279Y-96621218D01*
X90713096Y-96448781D02*
X90632284Y-96421844D01*
X90551471Y-96341032D01*
X90497597Y-96233282D01*
X90497597Y-96125532D01*
X90524534Y-96044720D01*
X90605346Y-95910033D01*
X90686158Y-95829221D01*
X90820845Y-95748409D01*
X90901658Y-95721471D01*
X91009407Y-95721471D01*
X91117157Y-95775346D01*
X91171032Y-95829221D01*
X91224906Y-95936971D01*
X91224906Y-95990845D01*
X91036345Y-96179407D01*
X90928595Y-96071658D01*
X91521218Y-96179407D02*
X90955532Y-96745093D01*
X91171032Y-96960592D01*
X91251844Y-96987529D01*
X91305719Y-96987529D01*
X91386531Y-96960592D01*
X91467343Y-96879780D01*
X91494280Y-96798967D01*
X91494280Y-96745093D01*
X91467343Y-96664280D01*
X91251844Y-96448781D01*
X91467343Y-97256903D02*
X91817529Y-97607089D01*
X91844467Y-97203028D01*
X91925279Y-97283841D01*
X92006091Y-97310778D01*
X92059966Y-97310778D01*
X92140778Y-97283841D01*
X92275465Y-97149154D01*
X92302402Y-97068341D01*
X92302402Y-97014467D01*
X92275465Y-96933654D01*
X92113841Y-96772030D01*
X92033028Y-96745093D01*
X91979154Y-96745093D01*
X90189722Y-73319407D02*
X90108910Y-73292470D01*
X90028097Y-73211658D01*
X89974223Y-73103908D01*
X89974223Y-72996158D01*
X90001160Y-72915346D01*
X90081972Y-72780659D01*
X90162784Y-72699847D01*
X90297471Y-72619035D01*
X90378284Y-72592097D01*
X90486033Y-72592097D01*
X90593783Y-72645972D01*
X90647658Y-72699847D01*
X90701532Y-72807597D01*
X90701532Y-72861471D01*
X90512971Y-73050033D01*
X90405221Y-72942284D01*
X90997844Y-73050033D02*
X90432158Y-73615719D01*
X90647658Y-73831218D01*
X90728470Y-73858155D01*
X90782345Y-73858155D01*
X90863157Y-73831218D01*
X90943969Y-73750406D01*
X90970906Y-73669593D01*
X90970906Y-73615719D01*
X90943969Y-73534906D01*
X90728470Y-73319407D01*
X91859841Y-73912030D02*
X91536592Y-73588781D01*
X91698216Y-73750406D02*
X91132531Y-74316091D01*
X91159468Y-74181404D01*
X91159468Y-74073654D01*
X91132531Y-73992842D01*
X91644341Y-74827902D02*
X91698216Y-74881776D01*
X91779028Y-74908714D01*
X91832903Y-74908714D01*
X91913715Y-74881776D01*
X92048402Y-74800964D01*
X92183089Y-74666277D01*
X92263902Y-74531590D01*
X92290839Y-74450778D01*
X92290839Y-74396903D01*
X92263902Y-74316091D01*
X92210027Y-74262216D01*
X92129215Y-74235279D01*
X92075340Y-74235279D01*
X91994528Y-74262216D01*
X91859841Y-74343028D01*
X91725154Y-74477715D01*
X91644341Y-74612402D01*
X91617404Y-74693215D01*
X91617404Y-74747089D01*
X91644341Y-74827902D01*
X116297722Y-60619407D02*
X116216910Y-60592470D01*
X116136097Y-60511658D01*
X116082223Y-60403908D01*
X116082223Y-60296158D01*
X116109160Y-60215346D01*
X116189972Y-60080659D01*
X116270784Y-59999847D01*
X116405471Y-59919035D01*
X116486284Y-59892097D01*
X116594033Y-59892097D01*
X116701783Y-59945972D01*
X116755658Y-59999847D01*
X116809532Y-60107597D01*
X116809532Y-60161471D01*
X116620971Y-60350033D01*
X116513221Y-60242284D01*
X117105844Y-60350033D02*
X116540158Y-60915719D01*
X116755658Y-61131218D01*
X116836470Y-61158155D01*
X116890345Y-61158155D01*
X116971157Y-61131218D01*
X117051969Y-61050406D01*
X117078906Y-60969593D01*
X117078906Y-60915719D01*
X117051969Y-60834906D01*
X116836470Y-60619407D01*
X117967841Y-61212030D02*
X117644592Y-60888781D01*
X117806216Y-61050406D02*
X117240531Y-61616091D01*
X117267468Y-61481404D01*
X117267468Y-61373654D01*
X117240531Y-61292842D01*
X117590717Y-61966277D02*
X117967841Y-62343401D01*
X118291089Y-61535279D01*
X90713096Y-106608781D02*
X90632284Y-106581844D01*
X90551471Y-106501032D01*
X90497597Y-106393282D01*
X90497597Y-106285532D01*
X90524534Y-106204720D01*
X90605346Y-106070033D01*
X90686158Y-105989221D01*
X90820845Y-105908409D01*
X90901658Y-105881471D01*
X91009407Y-105881471D01*
X91117157Y-105935346D01*
X91171032Y-105989221D01*
X91224906Y-106096971D01*
X91224906Y-106150845D01*
X91036345Y-106339407D01*
X90928595Y-106231658D01*
X91521218Y-106339407D02*
X90955532Y-106905093D01*
X91171032Y-107120592D01*
X91251844Y-107147529D01*
X91305719Y-107147529D01*
X91386531Y-107120592D01*
X91467343Y-107039780D01*
X91494280Y-106958967D01*
X91494280Y-106905093D01*
X91467343Y-106824280D01*
X91251844Y-106608781D01*
X91628967Y-107578528D02*
X91682842Y-107632402D01*
X91763654Y-107659340D01*
X91817529Y-107659340D01*
X91898341Y-107632402D01*
X92033028Y-107551590D01*
X92167715Y-107416903D01*
X92248528Y-107282216D01*
X92275465Y-107201404D01*
X92275465Y-107147529D01*
X92248528Y-107066717D01*
X92194653Y-107012842D01*
X92113841Y-106985905D01*
X92059966Y-106985905D01*
X91979154Y-107012842D01*
X91844467Y-107093654D01*
X91709780Y-107228341D01*
X91628967Y-107363028D01*
X91602030Y-107443841D01*
X91602030Y-107497715D01*
X91628967Y-107578528D01*
X116297722Y-58079407D02*
X116216910Y-58052470D01*
X116136097Y-57971658D01*
X116082223Y-57863908D01*
X116082223Y-57756158D01*
X116109160Y-57675346D01*
X116189972Y-57540659D01*
X116270784Y-57459847D01*
X116405471Y-57379035D01*
X116486284Y-57352097D01*
X116594033Y-57352097D01*
X116701783Y-57405972D01*
X116755658Y-57459847D01*
X116809532Y-57567597D01*
X116809532Y-57621471D01*
X116620971Y-57810033D01*
X116513221Y-57702284D01*
X117105844Y-57810033D02*
X116540158Y-58375719D01*
X116755658Y-58591218D01*
X116836470Y-58618155D01*
X116890345Y-58618155D01*
X116971157Y-58591218D01*
X117051969Y-58510406D01*
X117078906Y-58429593D01*
X117078906Y-58375719D01*
X117051969Y-58294906D01*
X116836470Y-58079407D01*
X117967841Y-58672030D02*
X117644592Y-58348781D01*
X117806216Y-58510406D02*
X117240531Y-59076091D01*
X117267468Y-58941404D01*
X117267468Y-58833654D01*
X117240531Y-58752842D01*
X117887028Y-59722589D02*
X117779279Y-59614839D01*
X117752341Y-59534027D01*
X117752341Y-59480152D01*
X117779279Y-59345465D01*
X117860091Y-59210778D01*
X118075590Y-58995279D01*
X118156402Y-58968341D01*
X118210277Y-58968341D01*
X118291089Y-58995279D01*
X118398839Y-59103028D01*
X118425776Y-59183841D01*
X118425776Y-59237715D01*
X118398839Y-59318528D01*
X118264152Y-59453215D01*
X118183340Y-59480152D01*
X118129465Y-59480152D01*
X118048653Y-59453215D01*
X117940903Y-59345465D01*
X117913966Y-59264653D01*
X117913966Y-59210778D01*
X117940903Y-59129966D01*
X116297722Y-91353407D02*
X116216910Y-91326470D01*
X116136097Y-91245658D01*
X116082223Y-91137908D01*
X116082223Y-91030158D01*
X116109160Y-90949346D01*
X116189972Y-90814659D01*
X116270784Y-90733847D01*
X116405471Y-90653035D01*
X116486284Y-90626097D01*
X116594033Y-90626097D01*
X116701783Y-90679972D01*
X116755658Y-90733847D01*
X116809532Y-90841597D01*
X116809532Y-90895471D01*
X116620971Y-91084033D01*
X116513221Y-90976284D01*
X117105844Y-91084033D02*
X116540158Y-91649719D01*
X116755658Y-91865218D01*
X116836470Y-91892155D01*
X116890345Y-91892155D01*
X116971157Y-91865218D01*
X117051969Y-91784406D01*
X117078906Y-91703593D01*
X117078906Y-91649719D01*
X117051969Y-91568906D01*
X116836470Y-91353407D01*
X117132781Y-92134592D02*
X117132781Y-92188467D01*
X117159719Y-92269279D01*
X117294406Y-92403966D01*
X117375218Y-92430903D01*
X117429093Y-92430903D01*
X117509905Y-92403966D01*
X117563780Y-92350091D01*
X117617654Y-92242341D01*
X117617654Y-91595844D01*
X117967841Y-91946030D01*
X117967841Y-92592528D02*
X117887028Y-92565590D01*
X117833154Y-92565590D01*
X117752341Y-92592528D01*
X117725404Y-92619465D01*
X117698467Y-92700277D01*
X117698467Y-92754152D01*
X117725404Y-92834964D01*
X117833154Y-92942714D01*
X117913966Y-92969651D01*
X117967841Y-92969651D01*
X118048653Y-92942714D01*
X118075590Y-92915776D01*
X118102528Y-92834964D01*
X118102528Y-92781089D01*
X118075590Y-92700277D01*
X117967841Y-92592528D01*
X117940903Y-92511715D01*
X117940903Y-92457841D01*
X117967841Y-92377028D01*
X118075590Y-92269279D01*
X118156402Y-92242341D01*
X118210277Y-92242341D01*
X118291089Y-92269279D01*
X118398839Y-92377028D01*
X118425776Y-92457841D01*
X118425776Y-92511715D01*
X118398839Y-92592528D01*
X118291089Y-92700277D01*
X118210277Y-92727215D01*
X118156402Y-92727215D01*
X118075590Y-92700277D01*
X90686158Y-63401844D02*
X90605346Y-63374906D01*
X90524534Y-63294094D01*
X90470659Y-63186345D01*
X90470659Y-63078595D01*
X90497597Y-62997783D01*
X90578409Y-62863096D01*
X90659221Y-62782284D01*
X90793908Y-62701471D01*
X90874720Y-62674534D01*
X90982470Y-62674534D01*
X91090219Y-62728409D01*
X91144094Y-62782284D01*
X91197969Y-62890033D01*
X91197969Y-62943908D01*
X91009407Y-63132470D01*
X90901658Y-63024720D01*
X91494280Y-63132470D02*
X90928595Y-63698155D01*
X91817529Y-63455719D01*
X91251844Y-64021404D01*
X92086903Y-63725093D02*
X91521218Y-64290778D01*
X91655905Y-64425465D01*
X91763654Y-64479340D01*
X91871404Y-64479340D01*
X91952216Y-64452402D01*
X92086903Y-64371590D01*
X92167715Y-64290778D01*
X92248528Y-64156091D01*
X92275465Y-64075279D01*
X92275465Y-63967529D01*
X92221590Y-63859780D01*
X92086903Y-63725093D01*
X90713096Y-93908781D02*
X90632284Y-93881844D01*
X90551471Y-93801032D01*
X90497597Y-93693282D01*
X90497597Y-93585532D01*
X90524534Y-93504720D01*
X90605346Y-93370033D01*
X90686158Y-93289221D01*
X90820845Y-93208409D01*
X90901658Y-93181471D01*
X91009407Y-93181471D01*
X91117157Y-93235346D01*
X91171032Y-93289221D01*
X91224906Y-93396971D01*
X91224906Y-93450845D01*
X91036345Y-93639407D01*
X90928595Y-93531658D01*
X91521218Y-93639407D02*
X90955532Y-94205093D01*
X91171032Y-94420592D01*
X91251844Y-94447529D01*
X91305719Y-94447529D01*
X91386531Y-94420592D01*
X91467343Y-94339780D01*
X91494280Y-94258967D01*
X91494280Y-94205093D01*
X91467343Y-94124280D01*
X91251844Y-93908781D01*
X91952216Y-94824653D02*
X92329340Y-94447529D01*
X91602030Y-94905465D02*
X91871404Y-94366717D01*
X92221590Y-94716903D01*
X100309523Y-56723809D02*
X100195238Y-56761904D01*
X100004761Y-56761904D01*
X99928571Y-56723809D01*
X99890476Y-56685714D01*
X99852380Y-56609523D01*
X99852380Y-56533333D01*
X99890476Y-56457142D01*
X99928571Y-56419047D01*
X100004761Y-56380952D01*
X100157142Y-56342857D01*
X100233333Y-56304761D01*
X100271428Y-56266666D01*
X100309523Y-56190476D01*
X100309523Y-56114285D01*
X100271428Y-56038095D01*
X100233333Y-56000000D01*
X100157142Y-55961904D01*
X99966666Y-55961904D01*
X99852380Y-56000000D01*
X99585714Y-55961904D02*
X99395238Y-56761904D01*
X99242857Y-56190476D01*
X99090476Y-56761904D01*
X98900000Y-55961904D01*
X98138095Y-56685714D02*
X98176190Y-56723809D01*
X98290476Y-56761904D01*
X98366666Y-56761904D01*
X98480952Y-56723809D01*
X98557142Y-56647619D01*
X98595238Y-56571428D01*
X98633333Y-56419047D01*
X98633333Y-56304761D01*
X98595238Y-56152380D01*
X98557142Y-56076190D01*
X98480952Y-56000000D01*
X98366666Y-55961904D01*
X98290476Y-55961904D01*
X98176190Y-56000000D01*
X98138095Y-56038095D01*
X97414285Y-56761904D02*
X97795238Y-56761904D01*
X97795238Y-55961904D01*
X97147619Y-56761904D02*
X97147619Y-55961904D01*
X96690476Y-56761904D02*
X97033333Y-56304761D01*
X96690476Y-55961904D02*
X97147619Y-56419047D01*
X90686158Y-101501844D02*
X90605346Y-101474906D01*
X90524534Y-101394094D01*
X90470659Y-101286345D01*
X90470659Y-101178595D01*
X90497597Y-101097783D01*
X90578409Y-100963096D01*
X90659221Y-100882284D01*
X90793908Y-100801471D01*
X90874720Y-100774534D01*
X90982470Y-100774534D01*
X91090219Y-100828409D01*
X91144094Y-100882284D01*
X91197969Y-100990033D01*
X91197969Y-101043908D01*
X91009407Y-101232470D01*
X90901658Y-101124720D01*
X91494280Y-101232470D02*
X90928595Y-101798155D01*
X91817529Y-101555719D01*
X91251844Y-102121404D01*
X92086903Y-101825093D02*
X91521218Y-102390778D01*
X91655905Y-102525465D01*
X91763654Y-102579340D01*
X91871404Y-102579340D01*
X91952216Y-102552402D01*
X92086903Y-102471590D01*
X92167715Y-102390778D01*
X92248528Y-102256091D01*
X92275465Y-102175279D01*
X92275465Y-102067529D01*
X92221590Y-101959780D01*
X92086903Y-101825093D01*
X116297722Y-86009407D02*
X116216910Y-85982470D01*
X116136097Y-85901658D01*
X116082223Y-85793908D01*
X116082223Y-85686158D01*
X116109160Y-85605346D01*
X116189972Y-85470659D01*
X116270784Y-85389847D01*
X116405471Y-85309035D01*
X116486284Y-85282097D01*
X116594033Y-85282097D01*
X116701783Y-85335972D01*
X116755658Y-85389847D01*
X116809532Y-85497597D01*
X116809532Y-85551471D01*
X116620971Y-85740033D01*
X116513221Y-85632284D01*
X117105844Y-85740033D02*
X116540158Y-86305719D01*
X116755658Y-86521218D01*
X116836470Y-86548155D01*
X116890345Y-86548155D01*
X116971157Y-86521218D01*
X117051969Y-86440406D01*
X117078906Y-86359593D01*
X117078906Y-86305719D01*
X117051969Y-86224906D01*
X116836470Y-86009407D01*
X117132781Y-86790592D02*
X117132781Y-86844467D01*
X117159719Y-86925279D01*
X117294406Y-87059966D01*
X117375218Y-87086903D01*
X117429093Y-87086903D01*
X117509905Y-87059966D01*
X117563780Y-87006091D01*
X117617654Y-86898341D01*
X117617654Y-86251844D01*
X117967841Y-86602030D01*
X117590717Y-87356277D02*
X117967841Y-87733401D01*
X118291089Y-86925279D01*
X90713096Y-78668781D02*
X90632284Y-78641844D01*
X90551471Y-78561032D01*
X90497597Y-78453282D01*
X90497597Y-78345532D01*
X90524534Y-78264720D01*
X90605346Y-78130033D01*
X90686158Y-78049221D01*
X90820845Y-77968409D01*
X90901658Y-77941471D01*
X91009407Y-77941471D01*
X91117157Y-77995346D01*
X91171032Y-78049221D01*
X91224906Y-78156971D01*
X91224906Y-78210845D01*
X91036345Y-78399407D01*
X90928595Y-78291658D01*
X91521218Y-78399407D02*
X90955532Y-78965093D01*
X91171032Y-79180592D01*
X91251844Y-79207529D01*
X91305719Y-79207529D01*
X91386531Y-79180592D01*
X91467343Y-79099780D01*
X91494280Y-79018967D01*
X91494280Y-78965093D01*
X91467343Y-78884280D01*
X91251844Y-78668781D01*
X92113841Y-78992030D02*
X92221590Y-79099780D01*
X92248528Y-79180592D01*
X92248528Y-79234467D01*
X92221590Y-79369154D01*
X92140778Y-79503841D01*
X91925279Y-79719340D01*
X91844467Y-79746277D01*
X91790592Y-79746277D01*
X91709780Y-79719340D01*
X91602030Y-79611590D01*
X91575093Y-79530778D01*
X91575093Y-79476903D01*
X91602030Y-79396091D01*
X91736717Y-79261404D01*
X91817529Y-79234467D01*
X91871404Y-79234467D01*
X91952216Y-79261404D01*
X92059966Y-79369154D01*
X92086903Y-79449966D01*
X92086903Y-79503841D01*
X92059966Y-79584653D01*
X116297722Y-70779407D02*
X116216910Y-70752470D01*
X116136097Y-70671658D01*
X116082223Y-70563908D01*
X116082223Y-70456158D01*
X116109160Y-70375346D01*
X116189972Y-70240659D01*
X116270784Y-70159847D01*
X116405471Y-70079035D01*
X116486284Y-70052097D01*
X116594033Y-70052097D01*
X116701783Y-70105972D01*
X116755658Y-70159847D01*
X116809532Y-70267597D01*
X116809532Y-70321471D01*
X116620971Y-70510033D01*
X116513221Y-70402284D01*
X117105844Y-70510033D02*
X116540158Y-71075719D01*
X116755658Y-71291218D01*
X116836470Y-71318155D01*
X116890345Y-71318155D01*
X116971157Y-71291218D01*
X117051969Y-71210406D01*
X117078906Y-71129593D01*
X117078906Y-71075719D01*
X117051969Y-70994906D01*
X116836470Y-70779407D01*
X117132781Y-71560592D02*
X117132781Y-71614467D01*
X117159719Y-71695279D01*
X117294406Y-71829966D01*
X117375218Y-71856903D01*
X117429093Y-71856903D01*
X117509905Y-71829966D01*
X117563780Y-71776091D01*
X117617654Y-71668341D01*
X117617654Y-71021844D01*
X117967841Y-71372030D01*
X117752341Y-72287902D02*
X117806216Y-72341776D01*
X117887028Y-72368714D01*
X117940903Y-72368714D01*
X118021715Y-72341776D01*
X118156402Y-72260964D01*
X118291089Y-72126277D01*
X118371902Y-71991590D01*
X118398839Y-71910778D01*
X118398839Y-71856903D01*
X118371902Y-71776091D01*
X118318027Y-71722216D01*
X118237215Y-71695279D01*
X118183340Y-71695279D01*
X118102528Y-71722216D01*
X117967841Y-71803028D01*
X117833154Y-71937715D01*
X117752341Y-72072402D01*
X117725404Y-72153215D01*
X117725404Y-72207089D01*
X117752341Y-72287902D01*
X116354788Y-93066226D02*
X116624162Y-93335600D01*
X116462537Y-92850727D02*
X116085414Y-93604974D01*
X116839661Y-93227850D01*
X117028223Y-93416412D02*
X116462537Y-93982097D01*
X116597224Y-94116784D01*
X116704974Y-94170659D01*
X116812723Y-94170659D01*
X116893536Y-94143722D01*
X117028223Y-94062910D01*
X117109035Y-93982097D01*
X117189847Y-93847410D01*
X117216784Y-93766598D01*
X117216784Y-93658849D01*
X117162910Y-93551099D01*
X117028223Y-93416412D01*
X117863282Y-94359221D02*
X117863282Y-94305346D01*
X117809407Y-94197597D01*
X117755532Y-94143722D01*
X117647783Y-94089847D01*
X117540033Y-94089847D01*
X117459221Y-94116784D01*
X117324534Y-94197597D01*
X117243722Y-94278409D01*
X117162910Y-94413096D01*
X117135972Y-94493908D01*
X117135972Y-94601658D01*
X117189847Y-94709407D01*
X117243722Y-94763282D01*
X117351471Y-94817157D01*
X117405346Y-94817157D01*
X118078781Y-94359221D02*
X118509780Y-94790219D01*
X117944094Y-95463654D02*
X118698341Y-95086531D01*
X118321218Y-95840778D01*
X119398714Y-95786903D02*
X118940778Y-95867715D01*
X119075465Y-95463654D02*
X118509780Y-96029340D01*
X118725279Y-96244839D01*
X118806091Y-96271776D01*
X118859966Y-96271776D01*
X118940778Y-96244839D01*
X119021590Y-96164027D01*
X119048528Y-96083215D01*
X119048528Y-96029340D01*
X119021590Y-95948528D01*
X118806091Y-95733028D01*
X119344839Y-96325651D02*
X119533401Y-96514213D01*
X119910524Y-96298714D02*
X119641150Y-96029340D01*
X119075465Y-96595025D01*
X119344839Y-96864399D01*
X120045211Y-97026024D02*
X119856650Y-96837462D01*
X120152961Y-96541150D02*
X119587276Y-97106836D01*
X119856650Y-97376210D01*
X116297722Y-68239407D02*
X116216910Y-68212470D01*
X116136097Y-68131658D01*
X116082223Y-68023908D01*
X116082223Y-67916158D01*
X116109160Y-67835346D01*
X116189972Y-67700659D01*
X116270784Y-67619847D01*
X116405471Y-67539035D01*
X116486284Y-67512097D01*
X116594033Y-67512097D01*
X116701783Y-67565972D01*
X116755658Y-67619847D01*
X116809532Y-67727597D01*
X116809532Y-67781471D01*
X116620971Y-67970033D01*
X116513221Y-67862284D01*
X117105844Y-67970033D02*
X116540158Y-68535719D01*
X116755658Y-68751218D01*
X116836470Y-68778155D01*
X116890345Y-68778155D01*
X116971157Y-68751218D01*
X117051969Y-68670406D01*
X117078906Y-68589593D01*
X117078906Y-68535719D01*
X117051969Y-68454906D01*
X116836470Y-68239407D01*
X117967841Y-68832030D02*
X117644592Y-68508781D01*
X117806216Y-68670406D02*
X117240531Y-69236091D01*
X117267468Y-69101404D01*
X117267468Y-68993654D01*
X117240531Y-68912842D01*
X118237215Y-69101404D02*
X118344964Y-69209154D01*
X118371902Y-69289966D01*
X118371902Y-69343841D01*
X118344964Y-69478528D01*
X118264152Y-69613215D01*
X118048653Y-69828714D01*
X117967841Y-69855651D01*
X117913966Y-69855651D01*
X117833154Y-69828714D01*
X117725404Y-69720964D01*
X117698467Y-69640152D01*
X117698467Y-69586277D01*
X117725404Y-69505465D01*
X117860091Y-69370778D01*
X117940903Y-69343841D01*
X117994778Y-69343841D01*
X118075590Y-69370778D01*
X118183340Y-69478528D01*
X118210277Y-69559340D01*
X118210277Y-69613215D01*
X118183340Y-69694027D01*
X90713096Y-91368781D02*
X90632284Y-91341844D01*
X90551471Y-91261032D01*
X90497597Y-91153282D01*
X90497597Y-91045532D01*
X90524534Y-90964720D01*
X90605346Y-90830033D01*
X90686158Y-90749221D01*
X90820845Y-90668409D01*
X90901658Y-90641471D01*
X91009407Y-90641471D01*
X91117157Y-90695346D01*
X91171032Y-90749221D01*
X91224906Y-90856971D01*
X91224906Y-90910845D01*
X91036345Y-91099407D01*
X90928595Y-90991658D01*
X91521218Y-91099407D02*
X90955532Y-91665093D01*
X91171032Y-91880592D01*
X91251844Y-91907529D01*
X91305719Y-91907529D01*
X91386531Y-91880592D01*
X91467343Y-91799780D01*
X91494280Y-91718967D01*
X91494280Y-91665093D01*
X91467343Y-91584280D01*
X91251844Y-91368781D01*
X91790592Y-92500152D02*
X91521218Y-92230778D01*
X91763654Y-91934467D01*
X91763654Y-91988341D01*
X91790592Y-92069154D01*
X91925279Y-92203841D01*
X92006091Y-92230778D01*
X92059966Y-92230778D01*
X92140778Y-92203841D01*
X92275465Y-92069154D01*
X92302402Y-91988341D01*
X92302402Y-91934467D01*
X92275465Y-91853654D01*
X92140778Y-91718967D01*
X92059966Y-91692030D01*
X92006091Y-91692030D01*
X116120473Y-103530033D02*
X116874720Y-103152910D01*
X116497597Y-103907157D01*
X117197969Y-103530033D02*
X117305719Y-103583908D01*
X117440406Y-103718595D01*
X117467343Y-103799407D01*
X117467343Y-103853282D01*
X117440406Y-103934094D01*
X117386531Y-103987969D01*
X117305719Y-104014906D01*
X117251844Y-104014906D01*
X117171032Y-103987969D01*
X117036345Y-103907157D01*
X116955532Y-103880219D01*
X116901658Y-103880219D01*
X116820845Y-103907157D01*
X116766971Y-103961032D01*
X116740033Y-104041844D01*
X116740033Y-104095719D01*
X116766971Y-104176531D01*
X116901658Y-104311218D01*
X117009407Y-104365093D01*
X117628967Y-104445905D02*
X117898341Y-104176531D01*
X117144094Y-104553654D02*
X117628967Y-104445905D01*
X117521218Y-104930778D01*
X118221590Y-104553654D02*
X118329340Y-104607529D01*
X118464027Y-104742216D01*
X118490964Y-104823028D01*
X118490964Y-104876903D01*
X118464027Y-104957715D01*
X118410152Y-105011590D01*
X118329340Y-105038528D01*
X118275465Y-105038528D01*
X118194653Y-105011590D01*
X118059966Y-104930778D01*
X117979154Y-104903841D01*
X117925279Y-104903841D01*
X117844467Y-104930778D01*
X117790592Y-104984653D01*
X117763654Y-105065465D01*
X117763654Y-105119340D01*
X117790592Y-105200152D01*
X117925279Y-105334839D01*
X118033028Y-105388714D01*
X116351597Y-87859035D02*
X116620971Y-88128409D01*
X116459346Y-87643536D02*
X116082223Y-88397783D01*
X116836470Y-88020659D01*
X116782595Y-89044280D02*
X116701783Y-89017343D01*
X116620971Y-88936531D01*
X116567096Y-88828781D01*
X116567096Y-88721032D01*
X116594033Y-88640219D01*
X116674845Y-88505532D01*
X116755658Y-88424720D01*
X116890345Y-88343908D01*
X116971157Y-88316971D01*
X117078906Y-88316971D01*
X117186656Y-88370845D01*
X117240531Y-88424720D01*
X117294406Y-88532470D01*
X117294406Y-88586345D01*
X117105844Y-88774906D01*
X116998094Y-88667157D01*
X117590717Y-88774906D02*
X117025032Y-89340592D01*
X117913966Y-89098155D01*
X117348280Y-89663841D01*
X118183340Y-89367529D02*
X117617654Y-89933215D01*
X117752341Y-90067902D01*
X117860091Y-90121776D01*
X117967841Y-90121776D01*
X118048653Y-90094839D01*
X118183340Y-90014027D01*
X118264152Y-89933215D01*
X118344964Y-89798528D01*
X118371902Y-89717715D01*
X118371902Y-89609966D01*
X118318027Y-89502216D01*
X118183340Y-89367529D01*
X90189722Y-67134407D02*
X90108910Y-67107470D01*
X90028097Y-67026658D01*
X89974223Y-66918908D01*
X89974223Y-66811158D01*
X90001160Y-66730346D01*
X90081972Y-66595659D01*
X90162784Y-66514847D01*
X90297471Y-66434035D01*
X90378284Y-66407097D01*
X90486033Y-66407097D01*
X90593783Y-66460972D01*
X90647658Y-66514847D01*
X90701532Y-66622597D01*
X90701532Y-66676471D01*
X90512971Y-66865033D01*
X90405221Y-66757284D01*
X90997844Y-66865033D02*
X90432158Y-67430719D01*
X90647658Y-67646218D01*
X90728470Y-67673155D01*
X90782345Y-67673155D01*
X90863157Y-67646218D01*
X90943969Y-67565406D01*
X90970906Y-67484593D01*
X90970906Y-67430719D01*
X90943969Y-67349906D01*
X90728470Y-67134407D01*
X91859841Y-67727030D02*
X91536592Y-67403781D01*
X91698216Y-67565406D02*
X91132531Y-68131091D01*
X91159468Y-67996404D01*
X91159468Y-67888654D01*
X91132531Y-67807842D01*
X91482717Y-68481277D02*
X91832903Y-68831463D01*
X91859841Y-68427402D01*
X91940653Y-68508215D01*
X92021465Y-68535152D01*
X92075340Y-68535152D01*
X92156152Y-68508215D01*
X92290839Y-68373528D01*
X92317776Y-68292715D01*
X92317776Y-68238841D01*
X92290839Y-68158028D01*
X92129215Y-67996404D01*
X92048402Y-67969467D01*
X91994528Y-67969467D01*
X90613096Y-98988781D02*
X90532284Y-98961844D01*
X90451471Y-98881032D01*
X90397597Y-98773282D01*
X90397597Y-98665532D01*
X90424534Y-98584720D01*
X90505346Y-98450033D01*
X90586158Y-98369221D01*
X90720845Y-98288409D01*
X90801658Y-98261471D01*
X90909407Y-98261471D01*
X91017157Y-98315346D01*
X91071032Y-98369221D01*
X91124906Y-98476971D01*
X91124906Y-98530845D01*
X90936345Y-98719407D01*
X90828595Y-98611658D01*
X91421218Y-98719407D02*
X90855532Y-99285093D01*
X91071032Y-99500592D01*
X91151844Y-99527529D01*
X91205719Y-99527529D01*
X91286531Y-99500592D01*
X91367343Y-99419780D01*
X91394280Y-99338967D01*
X91394280Y-99285093D01*
X91367343Y-99204280D01*
X91151844Y-98988781D01*
X91448155Y-99769966D02*
X91448155Y-99823841D01*
X91475093Y-99904653D01*
X91609780Y-100039340D01*
X91690592Y-100066277D01*
X91744467Y-100066277D01*
X91825279Y-100039340D01*
X91879154Y-99985465D01*
X91933028Y-99877715D01*
X91933028Y-99231218D01*
X92283215Y-99581404D01*
X111495238Y-56723809D02*
X111380952Y-56761904D01*
X111190476Y-56761904D01*
X111114285Y-56723809D01*
X111076190Y-56685714D01*
X111038095Y-56609523D01*
X111038095Y-56533333D01*
X111076190Y-56457142D01*
X111114285Y-56419047D01*
X111190476Y-56380952D01*
X111342857Y-56342857D01*
X111419047Y-56304761D01*
X111457142Y-56266666D01*
X111495238Y-56190476D01*
X111495238Y-56114285D01*
X111457142Y-56038095D01*
X111419047Y-56000000D01*
X111342857Y-55961904D01*
X111152380Y-55961904D01*
X111038095Y-56000000D01*
X110771428Y-55961904D02*
X110580952Y-56761904D01*
X110428571Y-56190476D01*
X110276190Y-56761904D01*
X110085714Y-55961904D01*
X109780952Y-56761904D02*
X109780952Y-55961904D01*
X109590476Y-55961904D01*
X109476190Y-56000000D01*
X109400000Y-56076190D01*
X109361904Y-56152380D01*
X109323809Y-56304761D01*
X109323809Y-56419047D01*
X109361904Y-56571428D01*
X109400000Y-56647619D01*
X109476190Y-56723809D01*
X109590476Y-56761904D01*
X109780952Y-56761904D01*
X108980952Y-56761904D02*
X108980952Y-55961904D01*
X108447619Y-55961904D02*
X108295238Y-55961904D01*
X108219047Y-56000000D01*
X108142857Y-56076190D01*
X108104761Y-56228571D01*
X108104761Y-56495238D01*
X108142857Y-56647619D01*
X108219047Y-56723809D01*
X108295238Y-56761904D01*
X108447619Y-56761904D01*
X108523809Y-56723809D01*
X108600000Y-56647619D01*
X108638095Y-56495238D01*
X108638095Y-56228571D01*
X108600000Y-56076190D01*
X108523809Y-56000000D01*
X108447619Y-55961904D01*
X90713096Y-81208781D02*
X90632284Y-81181844D01*
X90551471Y-81101032D01*
X90497597Y-80993282D01*
X90497597Y-80885532D01*
X90524534Y-80804720D01*
X90605346Y-80670033D01*
X90686158Y-80589221D01*
X90820845Y-80508409D01*
X90901658Y-80481471D01*
X91009407Y-80481471D01*
X91117157Y-80535346D01*
X91171032Y-80589221D01*
X91224906Y-80696971D01*
X91224906Y-80750845D01*
X91036345Y-80939407D01*
X90928595Y-80831658D01*
X91521218Y-80939407D02*
X90955532Y-81505093D01*
X91171032Y-81720592D01*
X91251844Y-81747529D01*
X91305719Y-81747529D01*
X91386531Y-81720592D01*
X91467343Y-81639780D01*
X91494280Y-81558967D01*
X91494280Y-81505093D01*
X91467343Y-81424280D01*
X91251844Y-81208781D01*
X91844467Y-81909154D02*
X91763654Y-81882216D01*
X91709780Y-81882216D01*
X91628967Y-81909154D01*
X91602030Y-81936091D01*
X91575093Y-82016903D01*
X91575093Y-82070778D01*
X91602030Y-82151590D01*
X91709780Y-82259340D01*
X91790592Y-82286277D01*
X91844467Y-82286277D01*
X91925279Y-82259340D01*
X91952216Y-82232402D01*
X91979154Y-82151590D01*
X91979154Y-82097715D01*
X91952216Y-82016903D01*
X91844467Y-81909154D01*
X91817529Y-81828341D01*
X91817529Y-81774467D01*
X91844467Y-81693654D01*
X91952216Y-81585905D01*
X92033028Y-81558967D01*
X92086903Y-81558967D01*
X92167715Y-81585905D01*
X92275465Y-81693654D01*
X92302402Y-81774467D01*
X92302402Y-81828341D01*
X92275465Y-81909154D01*
X92167715Y-82016903D01*
X92086903Y-82043841D01*
X92033028Y-82043841D01*
X91952216Y-82016903D01*
X117038375Y-80656564D02*
X116580439Y-80737377D01*
X116715126Y-80333316D02*
X116149441Y-80899001D01*
X116364940Y-81114500D01*
X116445752Y-81141438D01*
X116499627Y-81141438D01*
X116580439Y-81114500D01*
X116661251Y-81033688D01*
X116688189Y-80952876D01*
X116688189Y-80899001D01*
X116661251Y-80818189D01*
X116445752Y-80602690D01*
X116715126Y-81464687D02*
X117173062Y-81006751D01*
X117253874Y-80979813D01*
X117307749Y-80979813D01*
X117388561Y-81006751D01*
X117496311Y-81114500D01*
X117523248Y-81195312D01*
X117523248Y-81249187D01*
X117496311Y-81330000D01*
X117038375Y-81787935D01*
X117873435Y-81491624D02*
X117307749Y-82057309D01*
X118196683Y-81814873D01*
X117630998Y-82380558D01*
X90686158Y-64836844D02*
X90605346Y-64809906D01*
X90524534Y-64729094D01*
X90470659Y-64621345D01*
X90470659Y-64513595D01*
X90497597Y-64432783D01*
X90578409Y-64298096D01*
X90659221Y-64217284D01*
X90793908Y-64136471D01*
X90874720Y-64109534D01*
X90982470Y-64109534D01*
X91090219Y-64163409D01*
X91144094Y-64217284D01*
X91197969Y-64325033D01*
X91197969Y-64378908D01*
X91009407Y-64567470D01*
X90901658Y-64459720D01*
X91494280Y-64567470D02*
X90928595Y-65133155D01*
X91817529Y-64890719D01*
X91251844Y-65456404D01*
X92086903Y-65160093D02*
X91521218Y-65725778D01*
X91655905Y-65860465D01*
X91763654Y-65914340D01*
X91871404Y-65914340D01*
X91952216Y-65887402D01*
X92086903Y-65806590D01*
X92167715Y-65725778D01*
X92248528Y-65591091D01*
X92275465Y-65510279D01*
X92275465Y-65402529D01*
X92221590Y-65294780D01*
X92086903Y-65160093D01*
X116122131Y-98641691D02*
X116472317Y-98991877D01*
X116499255Y-98587816D01*
X116580067Y-98668629D01*
X116660879Y-98695566D01*
X116714754Y-98695566D01*
X116795566Y-98668629D01*
X116930253Y-98533942D01*
X116957190Y-98453129D01*
X116957190Y-98399255D01*
X116930253Y-98318442D01*
X116768629Y-98156818D01*
X116687816Y-98129881D01*
X116633942Y-98129881D01*
X116633942Y-99153502D02*
X117388189Y-98776378D01*
X117011065Y-99530625D01*
X117145752Y-99665312D02*
X117495938Y-100015499D01*
X117522876Y-99611438D01*
X117603688Y-99692250D01*
X117684500Y-99719187D01*
X117738375Y-99719187D01*
X117819187Y-99692250D01*
X117953874Y-99557563D01*
X117980812Y-99476751D01*
X117980812Y-99422876D01*
X117953874Y-99342064D01*
X117792250Y-99180439D01*
X117711438Y-99153502D01*
X117657563Y-99153502D01*
X118223248Y-99503688D02*
X118654247Y-99934687D01*
X118438748Y-100419560D02*
X118627309Y-100608122D01*
X119004433Y-100392622D02*
X118735059Y-100123248D01*
X118169374Y-100688934D01*
X118438748Y-100958308D01*
X119246870Y-100635059D02*
X118681184Y-101200744D01*
X119570118Y-100958308D01*
X119004433Y-101523993D01*
X116153129Y-106072690D02*
X116907377Y-105695566D01*
X116530253Y-106449813D01*
X117176751Y-106557563D02*
X117284500Y-106611438D01*
X117338375Y-106611438D01*
X117419187Y-106584500D01*
X117500000Y-106503688D01*
X117526937Y-106422876D01*
X117526937Y-106369001D01*
X117500000Y-106288189D01*
X117284500Y-106072690D01*
X116718815Y-106638375D01*
X116907377Y-106826937D01*
X116988189Y-106853874D01*
X117042064Y-106853874D01*
X117122876Y-106826937D01*
X117176751Y-106773062D01*
X117203688Y-106692250D01*
X117203688Y-106638375D01*
X117176751Y-106557563D01*
X116988189Y-106369001D01*
X117284500Y-107204061D02*
X117742436Y-106746125D01*
X117823248Y-106719187D01*
X117877123Y-106719187D01*
X117957935Y-106746125D01*
X118065685Y-106853874D01*
X118092622Y-106934687D01*
X118092622Y-106988561D01*
X118065685Y-107069374D01*
X117607749Y-107527309D01*
X118388934Y-107230998D02*
X118496683Y-107284873D01*
X118631370Y-107419560D01*
X118658308Y-107500372D01*
X118658308Y-107554247D01*
X118631370Y-107635059D01*
X118577496Y-107688934D01*
X118496683Y-107715871D01*
X118442809Y-107715871D01*
X118361996Y-107688934D01*
X118227309Y-107608122D01*
X118146497Y-107581184D01*
X118092622Y-107581184D01*
X118011810Y-107608122D01*
X117957935Y-107661996D01*
X117930998Y-107742809D01*
X117930998Y-107796683D01*
X117957935Y-107877496D01*
X118092622Y-108012183D01*
X118200372Y-108066057D01*
X90043722Y-71609408D02*
X89962910Y-71582471D01*
X89882097Y-71501659D01*
X89828223Y-71393909D01*
X89828223Y-71286159D01*
X89855160Y-71205347D01*
X89935972Y-71070660D01*
X90016784Y-70989848D01*
X90151471Y-70909036D01*
X90232284Y-70882098D01*
X90340033Y-70882098D01*
X90447783Y-70935973D01*
X90501658Y-70989848D01*
X90555532Y-71097598D01*
X90555532Y-71151472D01*
X90366971Y-71340034D01*
X90259221Y-71232285D01*
X90851844Y-71340034D02*
X90286158Y-71905720D01*
X90501658Y-72121219D01*
X90582470Y-72148156D01*
X90636345Y-72148156D01*
X90717157Y-72121219D01*
X90797969Y-72040407D01*
X90824906Y-71959594D01*
X90824906Y-71905720D01*
X90797969Y-71824907D01*
X90582470Y-71609408D01*
X91713841Y-72202031D02*
X91390592Y-71878782D01*
X91552216Y-72040407D02*
X90986531Y-72606092D01*
X91013468Y-72471405D01*
X91013468Y-72363655D01*
X90986531Y-72282843D01*
X92252589Y-72740779D02*
X91929340Y-72417530D01*
X92090964Y-72579155D02*
X91525279Y-73144840D01*
X91552216Y-73010153D01*
X91552216Y-72902403D01*
X91525279Y-72821591D01*
X90613096Y-104078781D02*
X90532284Y-104051844D01*
X90451471Y-103971032D01*
X90397597Y-103863282D01*
X90397597Y-103755532D01*
X90424534Y-103674720D01*
X90505346Y-103540033D01*
X90586158Y-103459221D01*
X90720845Y-103378409D01*
X90801658Y-103351471D01*
X90909407Y-103351471D01*
X91017157Y-103405346D01*
X91071032Y-103459221D01*
X91124906Y-103566971D01*
X91124906Y-103620845D01*
X90936345Y-103809407D01*
X90828595Y-103701658D01*
X91421218Y-103809407D02*
X90855532Y-104375093D01*
X91071032Y-104590592D01*
X91151844Y-104617529D01*
X91205719Y-104617529D01*
X91286531Y-104590592D01*
X91367343Y-104509780D01*
X91394280Y-104428967D01*
X91394280Y-104375093D01*
X91367343Y-104294280D01*
X91151844Y-104078781D01*
X92283215Y-104671404D02*
X91959966Y-104348155D01*
X92121590Y-104509780D02*
X91555905Y-105075465D01*
X91582842Y-104940778D01*
X91582842Y-104833028D01*
X91555905Y-104752216D01*
%TO.C,JP1*%
X174652380Y-63166666D02*
X175366666Y-63166666D01*
X175509523Y-63119047D01*
X175604761Y-63023809D01*
X175652380Y-62880952D01*
X175652380Y-62785714D01*
X175652380Y-63642857D02*
X174652380Y-63642857D01*
X174652380Y-64023809D01*
X174700000Y-64119047D01*
X174747619Y-64166666D01*
X174842857Y-64214285D01*
X174985714Y-64214285D01*
X175080952Y-64166666D01*
X175128571Y-64119047D01*
X175176190Y-64023809D01*
X175176190Y-63642857D01*
X175652380Y-65166666D02*
X175652380Y-64595238D01*
X175652380Y-64880952D02*
X174652380Y-64880952D01*
X174795238Y-64785714D01*
X174890476Y-64690476D01*
X174938095Y-64595238D01*
X177452380Y-61685714D02*
X177452380Y-61114285D01*
X177452380Y-61400000D02*
X176452380Y-61400000D01*
X176595238Y-61304761D01*
X176690476Y-61209523D01*
X176738095Y-61114285D01*
X176452380Y-66266666D02*
X176452380Y-66885714D01*
X176833333Y-66552380D01*
X176833333Y-66695238D01*
X176880952Y-66790476D01*
X176928571Y-66838095D01*
X177023809Y-66885714D01*
X177261904Y-66885714D01*
X177357142Y-66838095D01*
X177404761Y-66790476D01*
X177452380Y-66695238D01*
X177452380Y-66409523D01*
X177404761Y-66314285D01*
X177357142Y-66266666D01*
D11*
%TO.C,SW4*%
X133300000Y-74869999D02*
X131900000Y-74869999D01*
D10*
X133400000Y-71919999D02*
X133600000Y-71919999D01*
X123300000Y-76709999D02*
X123100000Y-76709999D01*
D12*
X133400000Y-71769999D02*
X132000000Y-71769999D01*
D13*
X132900000Y-72169999D02*
X132900000Y-74669999D01*
D14*
X123200000Y-74369998D02*
X123200000Y-73469999D01*
X124300000Y-83169999D02*
X124300000Y-81769999D01*
D10*
X123100000Y-77069999D02*
X123100000Y-76709999D01*
X123100000Y-73469999D02*
X123100000Y-74469999D01*
X133600000Y-71569999D02*
X125199999Y-71569999D01*
X133380000Y-74169999D02*
X133380000Y-71919999D01*
X123330000Y-74469999D02*
X123330000Y-76709999D01*
D15*
X131600000Y-73369999D02*
X124900000Y-73369999D01*
D10*
X133600000Y-75169999D02*
X133600000Y-74169999D01*
D16*
X123700000Y-76569999D02*
X123700000Y-74770000D01*
D12*
X133400000Y-74269999D02*
X133400000Y-74969999D01*
D10*
X133600000Y-71919999D02*
X133600000Y-71569999D01*
D14*
X126000000Y-83169999D02*
X124300000Y-83169999D01*
D10*
X123100000Y-74469999D02*
X123300000Y-74469999D01*
D17*
X124830000Y-73069999D02*
X124830000Y-75309999D01*
D11*
X123300000Y-76869999D02*
X126000000Y-76869999D01*
D14*
X124300000Y-81769999D02*
X126000000Y-81769999D01*
D10*
X133600000Y-74169999D02*
X133400000Y-74169999D01*
X123100000Y-77069999D02*
X126380000Y-77069999D01*
X128600000Y-75169999D02*
X133600000Y-75169999D01*
D13*
X128200000Y-74769999D02*
G75*
G03*
X125983682Y-76648528I-65001J-2169999D01*
G01*
D10*
X128600000Y-75169999D02*
G75*
G03*
X126383682Y-77048528I-65001J-2169999D01*
G01*
X125199999Y-71569998D02*
G75*
G03*
X123100000Y-73470000I-100000J-1999999D01*
G01*
D11*
%TO.C,SW5*%
X153300000Y-74869999D02*
X151900000Y-74869999D01*
D10*
X153400000Y-71919999D02*
X153600000Y-71919999D01*
X143300000Y-76709999D02*
X143100000Y-76709999D01*
D12*
X153400000Y-71769999D02*
X152000000Y-71769999D01*
D13*
X152900000Y-72169999D02*
X152900000Y-74669999D01*
D14*
X143200000Y-74369998D02*
X143200000Y-73469999D01*
X144300000Y-83169999D02*
X144300000Y-81769999D01*
D10*
X143100000Y-77069999D02*
X143100000Y-76709999D01*
X143100000Y-73469999D02*
X143100000Y-74469999D01*
X153600000Y-71569999D02*
X145199999Y-71569999D01*
X153380000Y-74169999D02*
X153380000Y-71919999D01*
X143330000Y-74469999D02*
X143330000Y-76709999D01*
D15*
X151600000Y-73369999D02*
X144900000Y-73369999D01*
D10*
X153600000Y-75169999D02*
X153600000Y-74169999D01*
D16*
X143700000Y-76569999D02*
X143700000Y-74770000D01*
D12*
X153400000Y-74269999D02*
X153400000Y-74969999D01*
D10*
X153600000Y-71919999D02*
X153600000Y-71569999D01*
D14*
X146000000Y-83169999D02*
X144300000Y-83169999D01*
D10*
X143100000Y-74469999D02*
X143300000Y-74469999D01*
D17*
X144830000Y-73069999D02*
X144830000Y-75309999D01*
D11*
X143300000Y-76869999D02*
X146000000Y-76869999D01*
D14*
X144300000Y-81769999D02*
X146000000Y-81769999D01*
D10*
X153600000Y-74169999D02*
X153400000Y-74169999D01*
X143100000Y-77069999D02*
X146380000Y-77069999D01*
X148600000Y-75169999D02*
X153600000Y-75169999D01*
D13*
X148200000Y-74769999D02*
G75*
G03*
X145983682Y-76648528I-65001J-2169999D01*
G01*
D10*
X148600000Y-75169999D02*
G75*
G03*
X146383682Y-77048528I-65001J-2169999D01*
G01*
X145199999Y-71569998D02*
G75*
G03*
X143100000Y-73470000I-100000J-1999999D01*
G01*
D11*
%TO.C,SW1*%
X133300000Y-54700000D02*
X131900000Y-54700000D01*
D10*
X133400000Y-51750000D02*
X133600000Y-51750000D01*
X123300000Y-56540000D02*
X123100000Y-56540000D01*
D12*
X133400000Y-51600000D02*
X132000000Y-51600000D01*
D13*
X132900000Y-52000000D02*
X132900000Y-54500000D01*
D14*
X123200000Y-54199999D02*
X123200000Y-53300000D01*
X124300000Y-63000000D02*
X124300000Y-61600000D01*
D10*
X123100000Y-56900000D02*
X123100000Y-56540000D01*
X123100000Y-53300000D02*
X123100000Y-54300000D01*
X133600000Y-51400000D02*
X125199999Y-51400000D01*
X133380000Y-54000000D02*
X133380000Y-51750000D01*
X123330000Y-54300000D02*
X123330000Y-56540000D01*
D15*
X131600000Y-53200000D02*
X124900000Y-53200000D01*
D10*
X133600000Y-55000000D02*
X133600000Y-54000000D01*
D16*
X123700000Y-56400000D02*
X123700000Y-54600001D01*
D12*
X133400000Y-54100000D02*
X133400000Y-54800000D01*
D10*
X133600000Y-51750000D02*
X133600000Y-51400000D01*
D14*
X126000000Y-63000000D02*
X124300000Y-63000000D01*
D10*
X123100000Y-54300000D02*
X123300000Y-54300000D01*
D17*
X124830000Y-52900000D02*
X124830000Y-55140000D01*
D11*
X123300000Y-56700000D02*
X126000000Y-56700000D01*
D14*
X124300000Y-61600000D02*
X126000000Y-61600000D01*
D10*
X133600000Y-54000000D02*
X133400000Y-54000000D01*
X123100000Y-56900000D02*
X126380000Y-56900000D01*
X128600000Y-55000000D02*
X133600000Y-55000000D01*
D13*
X128200000Y-54600000D02*
G75*
G03*
X125983682Y-56478529I-65001J-2169999D01*
G01*
D10*
X128600000Y-55000000D02*
G75*
G03*
X126383682Y-56878529I-65001J-2169999D01*
G01*
X125199999Y-51399999D02*
G75*
G03*
X123100000Y-53300001I-100000J-1999999D01*
G01*
D11*
%TO.C,SW9*%
X173300000Y-94500000D02*
X171900000Y-94500000D01*
D10*
X173400000Y-91550000D02*
X173600000Y-91550000D01*
X163300000Y-96340000D02*
X163100000Y-96340000D01*
D12*
X173400000Y-91400000D02*
X172000000Y-91400000D01*
D13*
X172900000Y-91800000D02*
X172900000Y-94300000D01*
D14*
X163200000Y-93999999D02*
X163200000Y-93100000D01*
X164300000Y-102800000D02*
X164300000Y-101400000D01*
D10*
X163100000Y-96700000D02*
X163100000Y-96340000D01*
X163100000Y-93100000D02*
X163100000Y-94100000D01*
X173600000Y-91200000D02*
X165199999Y-91200000D01*
X173380000Y-93800000D02*
X173380000Y-91550000D01*
X163330000Y-94100000D02*
X163330000Y-96340000D01*
D15*
X171600000Y-93000000D02*
X164900000Y-93000000D01*
D10*
X173600000Y-94800000D02*
X173600000Y-93800000D01*
D16*
X163700000Y-96200000D02*
X163700000Y-94400001D01*
D12*
X173400000Y-93900000D02*
X173400000Y-94600000D01*
D10*
X173600000Y-91550000D02*
X173600000Y-91200000D01*
D14*
X166000000Y-102800000D02*
X164300000Y-102800000D01*
D10*
X163100000Y-94100000D02*
X163300000Y-94100000D01*
D17*
X164830000Y-92700000D02*
X164830000Y-94940000D01*
D11*
X163300000Y-96500000D02*
X166000000Y-96500000D01*
D14*
X164300000Y-101400000D02*
X166000000Y-101400000D01*
D10*
X173600000Y-93800000D02*
X173400000Y-93800000D01*
X163100000Y-96700000D02*
X166380000Y-96700000D01*
X168600000Y-94800000D02*
X173600000Y-94800000D01*
D13*
X168200000Y-94400000D02*
G75*
G03*
X165983682Y-96278529I-65001J-2169999D01*
G01*
D10*
X168600000Y-94800000D02*
G75*
G03*
X166383682Y-96678529I-65001J-2169999D01*
G01*
X165199999Y-91199999D02*
G75*
G03*
X163100000Y-93100001I-100000J-1999999D01*
G01*
D11*
%TO.C,SW3*%
X173300000Y-54700000D02*
X171900000Y-54700000D01*
D10*
X173400000Y-51750000D02*
X173600000Y-51750000D01*
X163300000Y-56540000D02*
X163100000Y-56540000D01*
D12*
X173400000Y-51600000D02*
X172000000Y-51600000D01*
D13*
X172900000Y-52000000D02*
X172900000Y-54500000D01*
D14*
X163200000Y-54199999D02*
X163200000Y-53300000D01*
X164300000Y-63000000D02*
X164300000Y-61600000D01*
D10*
X163100000Y-56900000D02*
X163100000Y-56540000D01*
X163100000Y-53300000D02*
X163100000Y-54300000D01*
X173600000Y-51400000D02*
X165199999Y-51400000D01*
X173380000Y-54000000D02*
X173380000Y-51750000D01*
X163330000Y-54300000D02*
X163330000Y-56540000D01*
D15*
X171600000Y-53200000D02*
X164900000Y-53200000D01*
D10*
X173600000Y-55000000D02*
X173600000Y-54000000D01*
D16*
X163700000Y-56400000D02*
X163700000Y-54600001D01*
D12*
X173400000Y-54100000D02*
X173400000Y-54800000D01*
D10*
X173600000Y-51750000D02*
X173600000Y-51400000D01*
D14*
X166000000Y-63000000D02*
X164300000Y-63000000D01*
D10*
X163100000Y-54300000D02*
X163300000Y-54300000D01*
D17*
X164830000Y-52900000D02*
X164830000Y-55140000D01*
D11*
X163300000Y-56700000D02*
X166000000Y-56700000D01*
D14*
X164300000Y-61600000D02*
X166000000Y-61600000D01*
D10*
X173600000Y-54000000D02*
X173400000Y-54000000D01*
X163100000Y-56900000D02*
X166380000Y-56900000D01*
X168600000Y-55000000D02*
X173600000Y-55000000D01*
D13*
X168200000Y-54600000D02*
G75*
G03*
X165983682Y-56478529I-65001J-2169999D01*
G01*
D10*
X168600000Y-55000000D02*
G75*
G03*
X166383682Y-56878529I-65001J-2169999D01*
G01*
X165199999Y-51399999D02*
G75*
G03*
X163100000Y-53300001I-100000J-1999999D01*
G01*
D11*
%TO.C,SW6*%
X173300000Y-74869999D02*
X171900000Y-74869999D01*
D10*
X173400000Y-71919999D02*
X173600000Y-71919999D01*
X163300000Y-76709999D02*
X163100000Y-76709999D01*
D12*
X173400000Y-71769999D02*
X172000000Y-71769999D01*
D13*
X172900000Y-72169999D02*
X172900000Y-74669999D01*
D14*
X163200000Y-74369998D02*
X163200000Y-73469999D01*
X164300000Y-83169999D02*
X164300000Y-81769999D01*
D10*
X163100000Y-77069999D02*
X163100000Y-76709999D01*
X163100000Y-73469999D02*
X163100000Y-74469999D01*
X173600000Y-71569999D02*
X165199999Y-71569999D01*
X173380000Y-74169999D02*
X173380000Y-71919999D01*
X163330000Y-74469999D02*
X163330000Y-76709999D01*
D15*
X171600000Y-73369999D02*
X164900000Y-73369999D01*
D10*
X173600000Y-75169999D02*
X173600000Y-74169999D01*
D16*
X163700000Y-76569999D02*
X163700000Y-74770000D01*
D12*
X173400000Y-74269999D02*
X173400000Y-74969999D01*
D10*
X173600000Y-71919999D02*
X173600000Y-71569999D01*
D14*
X166000000Y-83169999D02*
X164300000Y-83169999D01*
D10*
X163100000Y-74469999D02*
X163300000Y-74469999D01*
D17*
X164830000Y-73069999D02*
X164830000Y-75309999D01*
D11*
X163300000Y-76869999D02*
X166000000Y-76869999D01*
D14*
X164300000Y-81769999D02*
X166000000Y-81769999D01*
D10*
X173600000Y-74169999D02*
X173400000Y-74169999D01*
X163100000Y-77069999D02*
X166380000Y-77069999D01*
X168600000Y-75169999D02*
X173600000Y-75169999D01*
D13*
X168200000Y-74769999D02*
G75*
G03*
X165983682Y-76648528I-65001J-2169999D01*
G01*
D10*
X168600000Y-75169999D02*
G75*
G03*
X166383682Y-77048528I-65001J-2169999D01*
G01*
X165199999Y-71569998D02*
G75*
G03*
X163100000Y-73470000I-100000J-1999999D01*
G01*
D11*
%TO.C,SW7*%
X133300000Y-94434999D02*
X131900000Y-94434999D01*
D10*
X133400000Y-91484999D02*
X133600000Y-91484999D01*
X123300000Y-96274999D02*
X123100000Y-96274999D01*
D12*
X133400000Y-91334999D02*
X132000000Y-91334999D01*
D13*
X132900000Y-91734999D02*
X132900000Y-94234999D01*
D14*
X123200000Y-93934998D02*
X123200000Y-93034999D01*
X124300000Y-102734999D02*
X124300000Y-101334999D01*
D10*
X123100000Y-96634999D02*
X123100000Y-96274999D01*
X123100000Y-93034999D02*
X123100000Y-94034999D01*
X133600000Y-91134999D02*
X125199999Y-91134999D01*
X133380000Y-93734999D02*
X133380000Y-91484999D01*
X123330000Y-94034999D02*
X123330000Y-96274999D01*
D15*
X131600000Y-92934999D02*
X124900000Y-92934999D01*
D10*
X133600000Y-94734999D02*
X133600000Y-93734999D01*
D16*
X123700000Y-96134999D02*
X123700000Y-94335000D01*
D12*
X133400000Y-93834999D02*
X133400000Y-94534999D01*
D10*
X133600000Y-91484999D02*
X133600000Y-91134999D01*
D14*
X126000000Y-102734999D02*
X124300000Y-102734999D01*
D10*
X123100000Y-94034999D02*
X123300000Y-94034999D01*
D17*
X124830000Y-92634999D02*
X124830000Y-94874999D01*
D11*
X123300000Y-96434999D02*
X126000000Y-96434999D01*
D14*
X124300000Y-101334999D02*
X126000000Y-101334999D01*
D10*
X133600000Y-93734999D02*
X133400000Y-93734999D01*
X123100000Y-96634999D02*
X126380000Y-96634999D01*
X128600000Y-94734999D02*
X133600000Y-94734999D01*
D13*
X128200000Y-94334999D02*
G75*
G03*
X125983682Y-96213528I-65001J-2169999D01*
G01*
D10*
X128600000Y-94734999D02*
G75*
G03*
X126383682Y-96613528I-65001J-2169999D01*
G01*
X125199999Y-91134998D02*
G75*
G03*
X123100000Y-93035000I-100000J-1999999D01*
G01*
D11*
%TO.C,SW2*%
X153300000Y-54700000D02*
X151900000Y-54700000D01*
D10*
X153400000Y-51750000D02*
X153600000Y-51750000D01*
X143300000Y-56540000D02*
X143100000Y-56540000D01*
D12*
X153400000Y-51600000D02*
X152000000Y-51600000D01*
D13*
X152900000Y-52000000D02*
X152900000Y-54500000D01*
D14*
X143200000Y-54199999D02*
X143200000Y-53300000D01*
X144300000Y-63000000D02*
X144300000Y-61600000D01*
D10*
X143100000Y-56900000D02*
X143100000Y-56540000D01*
X143100000Y-53300000D02*
X143100000Y-54300000D01*
X153600000Y-51400000D02*
X145199999Y-51400000D01*
X153380000Y-54000000D02*
X153380000Y-51750000D01*
X143330000Y-54300000D02*
X143330000Y-56540000D01*
D15*
X151600000Y-53200000D02*
X144900000Y-53200000D01*
D10*
X153600000Y-55000000D02*
X153600000Y-54000000D01*
D16*
X143700000Y-56400000D02*
X143700000Y-54600001D01*
D12*
X153400000Y-54100000D02*
X153400000Y-54800000D01*
D10*
X153600000Y-51750000D02*
X153600000Y-51400000D01*
D14*
X146000000Y-63000000D02*
X144300000Y-63000000D01*
D10*
X143100000Y-54300000D02*
X143300000Y-54300000D01*
D17*
X144830000Y-52900000D02*
X144830000Y-55140000D01*
D11*
X143300000Y-56700000D02*
X146000000Y-56700000D01*
D14*
X144300000Y-61600000D02*
X146000000Y-61600000D01*
D10*
X153600000Y-54000000D02*
X153400000Y-54000000D01*
X143100000Y-56900000D02*
X146380000Y-56900000D01*
X148600000Y-55000000D02*
X153600000Y-55000000D01*
D13*
X148200000Y-54600000D02*
G75*
G03*
X145983682Y-56478529I-65001J-2169999D01*
G01*
D10*
X148600000Y-55000000D02*
G75*
G03*
X146383682Y-56878529I-65001J-2169999D01*
G01*
X145199999Y-51399999D02*
G75*
G03*
X143100000Y-53300001I-100000J-1999999D01*
G01*
D11*
%TO.C,SW8*%
X153300000Y-94434999D02*
X151900000Y-94434999D01*
D10*
X153400000Y-91484999D02*
X153600000Y-91484999D01*
X143300000Y-96274999D02*
X143100000Y-96274999D01*
D12*
X153400000Y-91334999D02*
X152000000Y-91334999D01*
D13*
X152900000Y-91734999D02*
X152900000Y-94234999D01*
D14*
X143200000Y-93934998D02*
X143200000Y-93034999D01*
X144300000Y-102734999D02*
X144300000Y-101334999D01*
D10*
X143100000Y-96634999D02*
X143100000Y-96274999D01*
X143100000Y-93034999D02*
X143100000Y-94034999D01*
X153600000Y-91134999D02*
X145199999Y-91134999D01*
X153380000Y-93734999D02*
X153380000Y-91484999D01*
X143330000Y-94034999D02*
X143330000Y-96274999D01*
D15*
X151600000Y-92934999D02*
X144900000Y-92934999D01*
D10*
X153600000Y-94734999D02*
X153600000Y-93734999D01*
D16*
X143700000Y-96134999D02*
X143700000Y-94335000D01*
D12*
X153400000Y-93834999D02*
X153400000Y-94534999D01*
D10*
X153600000Y-91484999D02*
X153600000Y-91134999D01*
D14*
X146000000Y-102734999D02*
X144300000Y-102734999D01*
D10*
X143100000Y-94034999D02*
X143300000Y-94034999D01*
D17*
X144830000Y-92634999D02*
X144830000Y-94874999D01*
D11*
X143300000Y-96434999D02*
X146000000Y-96434999D01*
D14*
X144300000Y-101334999D02*
X146000000Y-101334999D01*
D10*
X153600000Y-93734999D02*
X153400000Y-93734999D01*
X143100000Y-96634999D02*
X146380000Y-96634999D01*
X148600000Y-94734999D02*
X153600000Y-94734999D01*
D13*
X148200000Y-94334999D02*
G75*
G03*
X145983682Y-96213528I-65001J-2169999D01*
G01*
D10*
X148600000Y-94734999D02*
G75*
G03*
X146383682Y-96613528I-65001J-2169999D01*
G01*
X145199999Y-91134998D02*
G75*
G03*
X143100000Y-93035000I-100000J-1999999D01*
G01*
D18*
%TO.C,D4*%
X126800000Y-70500000D02*
X126800000Y-68500000D01*
X126800000Y-68500000D02*
X130700000Y-68500000D01*
X126800000Y-70500000D02*
X130700000Y-70500000D01*
%TO.C,D7*%
X126800000Y-90000000D02*
X130700000Y-90000000D01*
X126800000Y-90000000D02*
X126800000Y-88000000D01*
X126800000Y-88000000D02*
X130700000Y-88000000D01*
%TO.C,D1*%
X126800000Y-50500000D02*
X126800000Y-48500000D01*
X126800000Y-48500000D02*
X130700000Y-48500000D01*
X126800000Y-50500000D02*
X130700000Y-50500000D01*
%TO.C,U1*%
X96707000Y-105433000D02*
X96707000Y-108100000D01*
X102700000Y-57100000D02*
X103100000Y-57100000D01*
X93700000Y-105700000D02*
X93700000Y-105300000D01*
X114700000Y-62500000D02*
X114700000Y-62100000D01*
X114700000Y-108100000D02*
X114700000Y-107800000D01*
X93700000Y-67500000D02*
X93700000Y-67100000D01*
X114700000Y-98000000D02*
X114700000Y-97600000D01*
X93700000Y-98000000D02*
X93700000Y-97600000D01*
X93700000Y-108100000D02*
X93700000Y-107800000D01*
X93700000Y-80300000D02*
X93700000Y-79900000D01*
X93700000Y-87900000D02*
X93700000Y-87500000D01*
X93700000Y-59900000D02*
X93700000Y-59500000D01*
X93700000Y-70100000D02*
X93700000Y-69700000D01*
X93700000Y-72600000D02*
X93700000Y-72200000D01*
X105300000Y-57100000D02*
X105700000Y-57100000D01*
X114700000Y-85300000D02*
X114700000Y-84900000D01*
X93700000Y-62500000D02*
X93700000Y-62100000D01*
X100500000Y-57100000D02*
X93700000Y-57100000D01*
X114700000Y-80300000D02*
X114700000Y-79900000D01*
X114700000Y-82800000D02*
X114700000Y-82400000D01*
X114700000Y-72600000D02*
X114700000Y-72200000D01*
X93700000Y-75200000D02*
X93700000Y-74800000D01*
X114700000Y-105700000D02*
X114700000Y-105300000D01*
X114700000Y-87900000D02*
X114700000Y-87500000D01*
X93700000Y-93000000D02*
X93700000Y-92600000D01*
X93700000Y-100600000D02*
X93700000Y-100200000D01*
X114700000Y-65000000D02*
X114700000Y-64600000D01*
X114700000Y-67500000D02*
X114700000Y-67100000D01*
X114700000Y-77700000D02*
X114700000Y-77300000D01*
X114700000Y-100600000D02*
X114700000Y-100200000D01*
X93700000Y-95500000D02*
X93700000Y-95100000D01*
X114700000Y-103100000D02*
X114700000Y-102700000D01*
X114700000Y-75200000D02*
X114700000Y-74800000D01*
X93700000Y-103100000D02*
X93700000Y-102700000D01*
X93700000Y-77700000D02*
X93700000Y-77300000D01*
X114700000Y-93000000D02*
X114700000Y-92600000D01*
X114700000Y-95500000D02*
X114700000Y-95100000D01*
X114700000Y-90400000D02*
X114700000Y-90000000D01*
X93700000Y-85300000D02*
X93700000Y-84900000D01*
X114700000Y-57100000D02*
X107900000Y-57100000D01*
X93700000Y-108100000D02*
X114700000Y-108100000D01*
X93700000Y-82800000D02*
X93700000Y-82400000D01*
X114700000Y-70100000D02*
X114700000Y-69700000D01*
X93700000Y-105433000D02*
X96707000Y-105433000D01*
X114700000Y-59900000D02*
X114700000Y-59500000D01*
X93700000Y-65000000D02*
X93700000Y-64600000D01*
X93700000Y-90400000D02*
X93700000Y-90000000D01*
%TO.C,D5*%
X146800000Y-68500000D02*
X150700000Y-68500000D01*
X146800000Y-70500000D02*
X146800000Y-68500000D01*
X146800000Y-70500000D02*
X150700000Y-70500000D01*
%TO.C,D2*%
X146800000Y-48500000D02*
X150700000Y-48500000D01*
X146800000Y-50500000D02*
X150700000Y-50500000D01*
X146800000Y-50500000D02*
X146800000Y-48500000D01*
%TO.C,D9*%
X166450000Y-90000000D02*
X170350000Y-90000000D01*
X166450000Y-88000000D02*
X170350000Y-88000000D01*
X166450000Y-90000000D02*
X166450000Y-88000000D01*
%TO.C,D3*%
X167000000Y-50500000D02*
X167000000Y-48500000D01*
X167000000Y-48500000D02*
X170900000Y-48500000D01*
X167000000Y-50500000D02*
X170900000Y-50500000D01*
%TO.C,D6*%
X167300000Y-68500000D02*
X171200000Y-68500000D01*
X167300000Y-70500000D02*
X167300000Y-68500000D01*
X167300000Y-70500000D02*
X171200000Y-70500000D01*
%TO.C,D8*%
X146800000Y-90000000D02*
X146800000Y-88000000D01*
X146800000Y-88000000D02*
X150700000Y-88000000D01*
X146800000Y-90000000D02*
X150700000Y-90000000D01*
%TO.C,JP1*%
X176000000Y-62600000D02*
X176000000Y-65400000D01*
X177300000Y-61950000D02*
X176700000Y-61950000D01*
X176700000Y-66050000D02*
X177300000Y-66050000D01*
X178000000Y-65400000D02*
X178000000Y-62600000D01*
X177300000Y-66050000D02*
G75*
G03*
X178000000Y-65350000I0J700000D01*
G01*
X176000000Y-65350000D02*
G75*
G03*
X176700000Y-66050000I700000J0D01*
G01*
X178000000Y-62650000D02*
G75*
G03*
X177300000Y-61950000I-699999J1D01*
G01*
X176700000Y-61950000D02*
G75*
G03*
X176000000Y-62650000I-1J-699999D01*
G01*
%TD*%
%LPC*%
D19*
X92238095Y-50800476D02*
X92523809Y-50705238D01*
X93000000Y-50705238D01*
X93190476Y-50800476D01*
X93285714Y-50895714D01*
X93380952Y-51086190D01*
X93380952Y-51276666D01*
X93285714Y-51467142D01*
X93190476Y-51562380D01*
X93000000Y-51657619D01*
X92619047Y-51752857D01*
X92428571Y-51848095D01*
X92333333Y-51943333D01*
X92238095Y-52133809D01*
X92238095Y-52324285D01*
X92333333Y-52514761D01*
X92428571Y-52610000D01*
X92619047Y-52705238D01*
X93095238Y-52705238D01*
X93380952Y-52610000D01*
X94523809Y-50705238D02*
X94333333Y-50800476D01*
X94238095Y-50895714D01*
X94142857Y-51086190D01*
X94142857Y-51657619D01*
X94238095Y-51848095D01*
X94333333Y-51943333D01*
X94523809Y-52038571D01*
X94809523Y-52038571D01*
X95000000Y-51943333D01*
X95095238Y-51848095D01*
X95190476Y-51657619D01*
X95190476Y-51086190D01*
X95095238Y-50895714D01*
X95000000Y-50800476D01*
X94809523Y-50705238D01*
X94523809Y-50705238D01*
X95761904Y-52038571D02*
X96523809Y-52038571D01*
X96047619Y-50705238D02*
X96047619Y-52419523D01*
X96142857Y-52610000D01*
X96333333Y-52705238D01*
X96523809Y-52705238D01*
X97476190Y-50705238D02*
X97285714Y-50800476D01*
X97190476Y-50990952D01*
X97190476Y-52705238D01*
X98999999Y-50800476D02*
X98809523Y-50705238D01*
X98428571Y-50705238D01*
X98238095Y-50800476D01*
X98142857Y-50990952D01*
X98142857Y-51752857D01*
X98238095Y-51943333D01*
X98428571Y-52038571D01*
X98809523Y-52038571D01*
X98999999Y-51943333D01*
X99095238Y-51752857D01*
X99095238Y-51562380D01*
X98142857Y-51371904D01*
X99666666Y-52705238D02*
X100809523Y-52705238D01*
X100238095Y-50705238D02*
X100238095Y-52705238D01*
X102238095Y-50800476D02*
X102047619Y-50705238D01*
X101666666Y-50705238D01*
X101476190Y-50800476D01*
X101380952Y-50990952D01*
X101380952Y-51752857D01*
X101476190Y-51943333D01*
X101666666Y-52038571D01*
X102047619Y-52038571D01*
X102238095Y-51943333D01*
X102333333Y-51752857D01*
X102333333Y-51562380D01*
X101380952Y-51371904D01*
X103095238Y-50800476D02*
X103285714Y-50705238D01*
X103666666Y-50705238D01*
X103857142Y-50800476D01*
X103952380Y-50990952D01*
X103952380Y-51086190D01*
X103857142Y-51276666D01*
X103666666Y-51371904D01*
X103380952Y-51371904D01*
X103190476Y-51467142D01*
X103095238Y-51657619D01*
X103095238Y-51752857D01*
X103190476Y-51943333D01*
X103380952Y-52038571D01*
X103666666Y-52038571D01*
X103857142Y-51943333D01*
X104523809Y-52038571D02*
X105285714Y-52038571D01*
X104809523Y-52705238D02*
X104809523Y-50990952D01*
X104904761Y-50800476D01*
X105095238Y-50705238D01*
X105285714Y-50705238D01*
X106619047Y-51752857D02*
X106904761Y-51657619D01*
X106999999Y-51562380D01*
X107095238Y-51371904D01*
X107095238Y-51086190D01*
X106999999Y-50895714D01*
X106904761Y-50800476D01*
X106714285Y-50705238D01*
X105952380Y-50705238D01*
X105952380Y-52705238D01*
X106619047Y-52705238D01*
X106809523Y-52610000D01*
X106904761Y-52514761D01*
X106999999Y-52324285D01*
X106999999Y-52133809D01*
X106904761Y-51943333D01*
X106809523Y-51848095D01*
X106619047Y-51752857D01*
X105952380Y-51752857D01*
X108238095Y-50705238D02*
X108047619Y-50800476D01*
X107952380Y-50895714D01*
X107857142Y-51086190D01*
X107857142Y-51657619D01*
X107952380Y-51848095D01*
X108047619Y-51943333D01*
X108238095Y-52038571D01*
X108523809Y-52038571D01*
X108714285Y-51943333D01*
X108809523Y-51848095D01*
X108904761Y-51657619D01*
X108904761Y-51086190D01*
X108809523Y-50895714D01*
X108714285Y-50800476D01*
X108523809Y-50705238D01*
X108238095Y-50705238D01*
X110619047Y-50705238D02*
X110619047Y-51752857D01*
X110523809Y-51943333D01*
X110333333Y-52038571D01*
X109952380Y-52038571D01*
X109761904Y-51943333D01*
X110619047Y-50800476D02*
X110428571Y-50705238D01*
X109952380Y-50705238D01*
X109761904Y-50800476D01*
X109666666Y-50990952D01*
X109666666Y-51181428D01*
X109761904Y-51371904D01*
X109952380Y-51467142D01*
X110428571Y-51467142D01*
X110619047Y-51562380D01*
X111571428Y-50705238D02*
X111571428Y-52038571D01*
X111571428Y-51657619D02*
X111666666Y-51848095D01*
X111761904Y-51943333D01*
X111952380Y-52038571D01*
X112142857Y-52038571D01*
X113666666Y-50705238D02*
X113666666Y-52705238D01*
X113666666Y-50800476D02*
X113476190Y-50705238D01*
X113095238Y-50705238D01*
X112904761Y-50800476D01*
X112809523Y-50895714D01*
X112714285Y-51086190D01*
X112714285Y-51657619D01*
X112809523Y-51848095D01*
X112904761Y-51943333D01*
X113095238Y-52038571D01*
X113476190Y-52038571D01*
X113666666Y-51943333D01*
X95857142Y-47485238D02*
X95857142Y-49485238D01*
X95857142Y-48723333D02*
X96047619Y-48818571D01*
X96428571Y-48818571D01*
X96619047Y-48723333D01*
X96714285Y-48628095D01*
X96809523Y-48437619D01*
X96809523Y-47866190D01*
X96714285Y-47675714D01*
X96619047Y-47580476D01*
X96428571Y-47485238D01*
X96047619Y-47485238D01*
X95857142Y-47580476D01*
X97476190Y-48818571D02*
X97952380Y-47485238D01*
X98428571Y-48818571D02*
X97952380Y-47485238D01*
X97761904Y-47009047D01*
X97666666Y-46913809D01*
X97476190Y-46818571D01*
X101380952Y-48532857D02*
X100714285Y-48532857D01*
X100714285Y-47485238D02*
X100714285Y-49485238D01*
X101666666Y-49485238D01*
X102428571Y-47485238D02*
X102428571Y-48818571D01*
X102428571Y-48437619D02*
X102523809Y-48628095D01*
X102619047Y-48723333D01*
X102809523Y-48818571D01*
X103000000Y-48818571D01*
X104428571Y-47580476D02*
X104238095Y-47485238D01*
X103857142Y-47485238D01*
X103666666Y-47580476D01*
X103571428Y-47770952D01*
X103571428Y-48532857D01*
X103666666Y-48723333D01*
X103857142Y-48818571D01*
X104238095Y-48818571D01*
X104428571Y-48723333D01*
X104523809Y-48532857D01*
X104523809Y-48342380D01*
X103571428Y-48151904D01*
X106142857Y-47580476D02*
X105952380Y-47485238D01*
X105571428Y-47485238D01*
X105380952Y-47580476D01*
X105285714Y-47770952D01*
X105285714Y-48532857D01*
X105380952Y-48723333D01*
X105571428Y-48818571D01*
X105952380Y-48818571D01*
X106142857Y-48723333D01*
X106238095Y-48532857D01*
X106238095Y-48342380D01*
X105285714Y-48151904D01*
X106904761Y-48818571D02*
X107380952Y-47485238D01*
X107857142Y-48818571D01*
X108619047Y-47485238D02*
X108619047Y-48818571D01*
X108619047Y-49485238D02*
X108523809Y-49390000D01*
X108619047Y-49294761D01*
X108714285Y-49390000D01*
X108619047Y-49485238D01*
X108619047Y-49294761D01*
X109380952Y-48818571D02*
X109857142Y-47485238D01*
X110333333Y-48818571D01*
D20*
%TO.C,SW4*%
X125190000Y-75629999D03*
D21*
X123920000Y-78169999D03*
D22*
X124500000Y-78169999D03*
D23*
X129000000Y-78169999D03*
D20*
X132810000Y-75629998D03*
X131540000Y-73089999D03*
X126460000Y-73089999D03*
D22*
X133500000Y-78169999D03*
D21*
X134080000Y-78169999D03*
D24*
X125300000Y-82469999D03*
X125300000Y-85669999D03*
X132700000Y-85669999D03*
X132700000Y-82469999D03*
D25*
X122000000Y-75589999D03*
X134700000Y-73049999D03*
%TD*%
D20*
%TO.C,SW5*%
X145190000Y-75629999D03*
D21*
X143920000Y-78169999D03*
D22*
X144500000Y-78169999D03*
D23*
X149000000Y-78169999D03*
D20*
X152810000Y-75629998D03*
X151540000Y-73089999D03*
X146460000Y-73089999D03*
D22*
X153500000Y-78169999D03*
D21*
X154080000Y-78169999D03*
D24*
X145300000Y-82469999D03*
X145300000Y-85669999D03*
X152700000Y-85669999D03*
X152700000Y-82469999D03*
D25*
X142000000Y-75589999D03*
X154700000Y-73049999D03*
%TD*%
D20*
%TO.C,SW1*%
X125190000Y-55460000D03*
D21*
X123920000Y-58000000D03*
D22*
X124500000Y-58000000D03*
D23*
X129000000Y-58000000D03*
D20*
X132810000Y-55459999D03*
X131540000Y-52920000D03*
X126460000Y-52920000D03*
D22*
X133500000Y-58000000D03*
D21*
X134080000Y-58000000D03*
D24*
X125300000Y-62300000D03*
X125300000Y-65500000D03*
X132700000Y-65500000D03*
X132700000Y-62300000D03*
D25*
X122000000Y-55420000D03*
X134700000Y-52880000D03*
%TD*%
D20*
%TO.C,SW9*%
X165190000Y-95260000D03*
D21*
X163920000Y-97800000D03*
D22*
X164500000Y-97800000D03*
D23*
X169000000Y-97800000D03*
D20*
X172810000Y-95259999D03*
X171540000Y-92720000D03*
X166460000Y-92720000D03*
D22*
X173500000Y-97800000D03*
D21*
X174080000Y-97800000D03*
D24*
X165300000Y-102100000D03*
X165300000Y-105300000D03*
X172700000Y-105300000D03*
X172700000Y-102100000D03*
D25*
X162000000Y-95220000D03*
X174700000Y-92680000D03*
%TD*%
D20*
%TO.C,SW3*%
X165190000Y-55460000D03*
D21*
X163920000Y-58000000D03*
D22*
X164500000Y-58000000D03*
D23*
X169000000Y-58000000D03*
D20*
X172810000Y-55459999D03*
X171540000Y-52920000D03*
X166460000Y-52920000D03*
D22*
X173500000Y-58000000D03*
D21*
X174080000Y-58000000D03*
D24*
X165300000Y-62300000D03*
X165300000Y-65500000D03*
X172700000Y-65500000D03*
X172700000Y-62300000D03*
D25*
X162000000Y-55420000D03*
X174700000Y-52880000D03*
%TD*%
D20*
%TO.C,SW6*%
X165190000Y-75629999D03*
D21*
X163920000Y-78169999D03*
D22*
X164500000Y-78169999D03*
D23*
X169000000Y-78169999D03*
D20*
X172810000Y-75629998D03*
X171540000Y-73089999D03*
X166460000Y-73089999D03*
D22*
X173500000Y-78169999D03*
D21*
X174080000Y-78169999D03*
D24*
X165300000Y-82469999D03*
X165300000Y-85669999D03*
X172700000Y-85669999D03*
X172700000Y-82469999D03*
D25*
X162000000Y-75589999D03*
X174700000Y-73049999D03*
%TD*%
D20*
%TO.C,SW7*%
X125190000Y-95194999D03*
D21*
X123920000Y-97734999D03*
D22*
X124500000Y-97734999D03*
D23*
X129000000Y-97734999D03*
D20*
X132810000Y-95194998D03*
X131540000Y-92654999D03*
X126460000Y-92654999D03*
D22*
X133500000Y-97734999D03*
D21*
X134080000Y-97734999D03*
D24*
X125300000Y-102034999D03*
X125300000Y-105234999D03*
X132700000Y-105234999D03*
X132700000Y-102034999D03*
D25*
X122000000Y-95154999D03*
X134700000Y-92614999D03*
%TD*%
D20*
%TO.C,SW2*%
X145190000Y-55460000D03*
D21*
X143920000Y-58000000D03*
D22*
X144500000Y-58000000D03*
D23*
X149000000Y-58000000D03*
D20*
X152810000Y-55459999D03*
X151540000Y-52920000D03*
X146460000Y-52920000D03*
D22*
X153500000Y-58000000D03*
D21*
X154080000Y-58000000D03*
D24*
X145300000Y-62300000D03*
X145300000Y-65500000D03*
X152700000Y-65500000D03*
X152700000Y-62300000D03*
D25*
X142000000Y-55420000D03*
X154700000Y-52880000D03*
%TD*%
D20*
%TO.C,SW8*%
X145190000Y-95194999D03*
D21*
X143920000Y-97734999D03*
D22*
X144500000Y-97734999D03*
D23*
X149000000Y-97734999D03*
D20*
X152810000Y-95194998D03*
X151540000Y-92654999D03*
X146460000Y-92654999D03*
D22*
X153500000Y-97734999D03*
D21*
X154080000Y-97734999D03*
D24*
X145300000Y-102034999D03*
X145300000Y-105234999D03*
X152700000Y-105234999D03*
X152700000Y-102034999D03*
D25*
X142000000Y-95154999D03*
X154700000Y-92614999D03*
%TD*%
D26*
%TO.C,H5*%
X159000000Y-79800000D03*
D27*
X159000000Y-79800000D03*
%TD*%
D28*
%TO.C,D4*%
X127350000Y-69500000D03*
X130650000Y-69500000D03*
%TD*%
%TO.C,D7*%
X127350000Y-89000000D03*
X130650000Y-89000000D03*
%TD*%
D27*
%TO.C,H4*%
X84000000Y-105000000D03*
D26*
X84000000Y-105000000D03*
%TD*%
D28*
%TO.C,D1*%
X127350000Y-49500000D03*
X130650000Y-49500000D03*
%TD*%
D29*
%TO.C,U1*%
X101475000Y-106600000D03*
X106925000Y-106600000D03*
X101475000Y-106600000D03*
D30*
X106625000Y-103570000D03*
X106625000Y-103570000D03*
X101775000Y-103570000D03*
D29*
X106925000Y-106600000D03*
D30*
X101775000Y-103570000D03*
D31*
X94410000Y-106730000D03*
X94410000Y-104190000D03*
X94410000Y-101650000D03*
X94410000Y-99110000D03*
X94410000Y-96570000D03*
X94410000Y-94030000D03*
X94410000Y-91490000D03*
X94410000Y-88950000D03*
X94410000Y-86410000D03*
X94410000Y-83870000D03*
X94410000Y-81330000D03*
X94410000Y-78790000D03*
X94410000Y-76250000D03*
X94410000Y-73710000D03*
X94410000Y-71170000D03*
X94410000Y-68630000D03*
X94410000Y-66090000D03*
X94410000Y-63550000D03*
X94410000Y-61010000D03*
X94410000Y-58470000D03*
X113990000Y-58470000D03*
X113990000Y-61010000D03*
X113990000Y-63550000D03*
X113990000Y-66090000D03*
X113990000Y-68630000D03*
X113990000Y-71170000D03*
X113990000Y-73710000D03*
X113990000Y-76250000D03*
X113990000Y-78790000D03*
X113990000Y-81330000D03*
X113990000Y-83870000D03*
X113990000Y-86410000D03*
X113990000Y-88950000D03*
X113990000Y-91490000D03*
X113990000Y-94030000D03*
X113990000Y-96570000D03*
X113990000Y-99110000D03*
X113990000Y-101650000D03*
X113990000Y-104190000D03*
X113990000Y-106730000D03*
D32*
X101660000Y-57800000D03*
X104200000Y-57800000D03*
X106740000Y-57800000D03*
%TD*%
D28*
%TO.C,D5*%
X147350000Y-69500000D03*
X150650000Y-69500000D03*
%TD*%
%TO.C,D2*%
X147350000Y-49500000D03*
X150650000Y-49500000D03*
%TD*%
%TO.C,D9*%
X167000000Y-89000000D03*
X170300000Y-89000000D03*
%TD*%
D26*
%TO.C,H1*%
X84000000Y-49000000D03*
D27*
X84000000Y-49000000D03*
%TD*%
D28*
%TO.C,D3*%
X167550000Y-49500000D03*
X170850000Y-49500000D03*
%TD*%
D26*
%TO.C,H6*%
X120000000Y-79800000D03*
D27*
X120000000Y-79800000D03*
%TD*%
%TO.C,H3*%
X178000000Y-105000000D03*
D26*
X178000000Y-105000000D03*
%TD*%
D28*
%TO.C,D6*%
X167850000Y-69500000D03*
X171150000Y-69500000D03*
%TD*%
D27*
%TO.C,H2*%
X178000000Y-49000000D03*
D26*
X178000000Y-49000000D03*
%TD*%
D28*
%TO.C,D8*%
X147350000Y-89000000D03*
X150650000Y-89000000D03*
%TD*%
D33*
%TO.C,JP1*%
X177000000Y-62700000D03*
D34*
X177000000Y-64000000D03*
D35*
X177000000Y-65300000D03*
%TD*%
M02*
