M48
; DRILL file {KiCad 6.0.4-6f826c9f35~116~ubuntu20.04.1} date Sa 29 Okt 2022 14:34:24 CEST
; FORMAT={-:-/ absolute / metric / decimal}
; #@! TF.CreationDate,2022-10-29T14:34:24+02:00
; #@! TF.GenerationSoftware,Kicad,Pcbnew,6.0.4-6f826c9f35~116~ubuntu20.04.1
; #@! TF.FileFunction,Plated,1,2,PTH
FMAT,2
METRIC
; #@! TA.AperFunction,Plated,PTH,ViaDrill
T1C0.400
; #@! TA.AperFunction,Plated,PTH,ComponentDrill
T2C2.500
%
G90
G05
T1
X96.83Y-106.671
X96.9Y-98.7
X96.9Y-105.4
X96.95Y-96.15
X97.2Y-74.2
X97.251Y-103.351
X97.3Y-99.7
X97.3Y-102.1
X97.453Y-83.506
X97.5Y-78.781
X97.5Y-86.1
X97.6Y-97.0
X97.7Y-68.3
X97.8Y-81.8
X97.9Y-84.4
X97.9Y-94.0
X98.0Y-58.8
X98.0Y-60.3
X98.025Y-65.392
X98.095Y-61.596
X98.1Y-66.5
X98.1Y-72.861
X98.1Y-79.631
X98.1Y-91.35
X98.2Y-87.0
X98.4Y-69.3
X98.5Y-57.9
X98.6Y-70.8
X98.7Y-94.9
X98.999Y-80.48
X99.1Y-92.2
X99.6Y-71.8
X120.3Y-66.1
X120.4Y-58.0
X120.6Y-50.2
X120.9Y-89.9
X121.0Y-83.8
X121.1Y-88.075
X121.2Y-69.0
X121.4Y-105.2
X122.8Y-69.2
X123.0Y-82.0
X123.2Y-89.0
X123.4Y-65.5
X123.5Y-60.5
X123.5Y-85.7
X124.8Y-90.4
X125.0Y-71.1
X125.1Y-84.1
X125.3Y-50.7
X125.5Y-103.5
X126.0Y-60.0
X126.0Y-68.1
X126.405Y-88.062
X126.5Y-80.5
X126.5Y-100.0
X128.5Y-48.1
X129.0Y-49.5
X129.0Y-69.5
X129.0Y-89.0
X131.2Y-80.5
X131.3Y-59.9
X132.0Y-100.0
X132.4Y-63.8
X132.4Y-84.3
X132.4Y-103.7
X134.5Y-69.0
X134.5Y-85.9
X134.9Y-83.9
X135.0Y-89.5
X135.1Y-103.5
X135.4Y-66.1
X135.9Y-63.8
X137.0Y-62.1
X137.3Y-88.8
X138.1Y-85.0
X138.3Y-82.8
X139.0Y-55.4
X139.2Y-49.1
X140.5Y-62.3
X140.5Y-69.5
X140.7Y-64.9
X140.8Y-80.7
X141.0Y-84.8
X141.0Y-89.5
X141.2Y-66.2
X141.275Y-86.3
X141.4Y-51.7
X142.725Y-86.3
X142.8Y-103.5
X142.9Y-66.2
X143.0Y-60.0
X143.0Y-69.0
X143.0Y-80.5
X143.1Y-89.0
X143.7Y-85.3
X143.83Y-83.9
X143.9Y-63.8
X145.0Y-70.8
X145.1Y-50.7
X145.5Y-84.1
X145.6Y-90.4
X145.9Y-68.1
X146.0Y-48.1
X146.0Y-100.0
X146.325Y-88.075
X146.5Y-60.0
X146.5Y-80.5
X149.0Y-49.5
X149.0Y-69.5
X149.0Y-89.0
X151.5Y-80.5
X151.5Y-100.0
X152.4Y-60.0
X152.4Y-64.0
X152.4Y-84.0
X152.4Y-103.7
X153.8Y-83.5
X154.9Y-103.7
X155.0Y-69.5
X155.0Y-89.0
X155.7Y-66.2
X155.9Y-63.8
X156.1Y-84.3
X156.1Y-86.0
X157.0Y-62.3
X157.3Y-89.0
X157.5Y-83.0
X158.8Y-75.7
X158.9Y-56.7
X159.0Y-95.0
X160.1Y-64.7
X160.1Y-85.1
X160.5Y-69.5
X160.7Y-62.4
X160.8Y-83.1
X161.0Y-89.5
X161.275Y-66.2
X161.275Y-86.2
X162.725Y-86.2
X162.8Y-66.2
X162.9Y-89.0
X163.0Y-60.0
X163.0Y-69.0
X163.0Y-80.0
X163.6Y-84.3
X163.9Y-63.8
X164.0Y-103.7
X164.9Y-90.4
X165.2Y-50.7
X165.2Y-70.8
X165.4Y-84.0
X165.875Y-88.075
X166.1Y-48.1
X166.5Y-60.0
X166.5Y-68.1
X166.5Y-100.0
X167.0Y-80.5
X168.5Y-89.0
X169.0Y-49.5
X169.1Y-94.1
X169.5Y-69.5
X171.0Y-80.5
X171.0Y-100.0
X172.4Y-63.8
X172.4Y-84.3
X172.4Y-103.8
X175.0Y-62.3
X175.55Y-102.15
X175.95Y-82.45
X176.0Y-87.0
T2
X84.0Y-49.0
X84.0Y-105.0
X120.0Y-79.8
X159.0Y-79.8
X178.0Y-49.0
X178.0Y-105.0
T0
M30
